<svg width="160" height="150" viewBox="0 0 160 150" fill="none" xmlns="http://www.w3.org/2000/svg">
<g id="Group 819">
<g id="Group">
<path id="Vector" d="M119.375 99.25L106.719 90.3438L86.5625 76.2813L72.9688 66.9063C72.9688 66.9063 72.9688 66.9063 72.5 66.4375C72.0312 66.4375 71.5625 65.9688 71.5625 65.9688C71.0938 65.9688 70.625 65.9688 70.1562 65.9688H69.6875C69.2188 65.9688 68.75 66.4375 68.75 66.4375C68.75 66.4375 68.75 66.4375 68.2812 66.4375L54.6875 75.8125L34.5312 89.875L21.875 99.25C12.5 100.188 5 108.156 5 118C5 128.312 13.4375 136.75 23.75 136.75C34.0625 136.75 42.5 128.312 42.5 118C42.5 111.438 39.2188 105.813 34.0625 102.531L39.6875 98.3125L59.8438 84.25L65.9375 80.0312V87.5313V99.7188C57.9688 101.594 51.875 109.094 51.875 118C51.875 128.312 60.3125 136.75 70.625 136.75C80.9375 136.75 89.375 128.312 89.375 118C89.375 109.094 83.2812 102.063 75.3125 99.7188V87.5313V80.0312L81.4062 84.25L101.562 98.3125L107.188 102.531C102.031 105.813 98.75 111.438 98.75 118C98.75 128.312 107.188 136.75 117.5 136.75C127.812 136.75 136.25 128.312 136.25 118C136.25 108.156 128.75 100.188 119.375 99.25Z" fill="url(#paint0_linear_1047_63085)"/>
<path id="Vector_2" d="M47.1876 61.75H94.0626C95.4688 61.75 96.875 61.2812 97.8125 59.875C98.75 58.9375 99.2188 57.5312 98.7501 56.125C97.3438 49.0938 92.1876 43.4688 85.1563 41.5938C83.2813 41.125 81.875 39.7188 81.4063 37.8438C83.2813 35.5 84.6876 32.2188 84.6876 28.9375V19.5625C84.6876 11.5938 78.5938 5.5 70.6251 5.5C62.6563 5.5 56.5626 11.5938 56.5626 19.5625V28.9375C56.5626 32.2188 57.9688 35.5 59.8438 37.8438C59.3751 39.7188 57.9688 41.125 56.0938 41.5938C49.0626 43.4688 43.9063 49.0938 42.9688 56.125C42.5001 57.5312 42.9688 58.9375 43.9063 59.875C44.3751 61.2812 45.7813 61.75 47.1876 61.75Z" fill="url(#paint1_linear_1047_63085)"/>
</g>
<g id="Vector_3" filter="url(#filter0_f_1047_63085)">
<path d="M83 6C88.4915 10.5 86 10.5 87 12C87.5 16.5 87.4916 16.373 87.5 22C87.5108 29.2836 85.0035 36.8527 84.9915 44.1363C84.982 49.6799 106.779 61.4905 104 61.5C97.7828 61.5238 73.2173 61.5262 67 61.5C64.2235 61.4881 41.0024 66.0508 41 60.5C40.9964 53.2164 46.5 54.5 54 16C54.0036 10.454 66.2211 3.00952 69 3C80.5 3 80.5872 4.02287 83 6Z" fill="url(#paint2_linear_1047_63085)"/>
</g>
<g id="Vector_4" filter="url(#filter1_f_1047_63085)">
<path d="M6.3564 112.154C10.1191 106.133 10.4369 108.604 11.7971 107.421C16.1966 106.351 16.0717 106.376 21.6516 105.649C28.8743 104.71 36.7014 106.231 43.9271 105.313C49.4266 104.616 58.36 81.4902 58.724 84.2452C59.5407 90.4086 62.6769 114.773 63.4441 120.943C63.7865 123.698 45.1052 114.473 45.1052 114.473C37.8815 115.406 59.1164 142.168 19.9742 139.641C14.473 140.345 2.30062 131.573 5.16689 126.422C3.69983 115.016 4.70322 114.799 6.3564 112.154Z" fill="url(#paint3_linear_1047_63085)"/>
</g>
<g id="Vector_5" filter="url(#filter2_f_1047_63085)">
<path d="M50.2457 122.977C50.4865 115.882 51.9994 117.861 52.5839 116.156C55.8557 113.026 55.7599 113.11 60.2256 109.686C66.006 105.255 61.0891 102.113 66.8834 97.6995C71.2938 94.3408 66.6593 95.9022 68.3543 98.1043C72.1485 103.03 100.303 97.0326 104.058 101.988C105.734 104.201 96.5718 102.981 96.5718 102.981C90.787 107.407 110.944 122.527 75.8007 139.946C71.3921 143.311 56.463 141.816 56.3634 135.922C49.3802 126.785 50.14 126.095 50.2457 122.977Z" fill="url(#paint4_linear_1047_63085)"/>
</g>
<g id="Vector_6" filter="url(#filter3_f_1047_63085)">
<path d="M97.4718 121.4C97.4392 114.3 99.0272 116.22 99.5457 114.494C102.695 111.24 102.602 111.328 106.933 107.735C112.538 103.084 107.504 100.134 113.124 95.5006C117.402 91.9747 112.831 93.7133 114.609 95.8485C118.59 100.624 146.493 93.5478 150.436 98.3552C152.196 100.502 142.994 99.6353 142.994 99.6353C137.384 104.28 158.108 118.613 123.661 137.373C119.385 140.905 104.41 139.986 104.083 134.1C96.7535 125.239 97.4861 124.519 97.4718 121.4Z" fill="url(#paint5_linear_1047_63085)"/>
</g>
</g>
<defs>
<filter id="filter0_f_1047_63085" x="38.6338" y="0.633754" width="67.9771" height="64.9852" filterUnits="userSpaceOnUse" color-interpolation-filters="sRGB">
<feFlood flood-opacity="0" result="BackgroundImageFix"/>
<feBlend mode="normal" in="SourceGraphic" in2="BackgroundImageFix" result="shape"/>
<feGaussianBlur stdDeviation="1.18312" result="effect1_foregroundBlur_1047_63085"/>
</filter>
<filter id="filter1_f_1047_63085" x="2.08932" y="81.6511" width="63.7257" height="60.5245" filterUnits="userSpaceOnUse" color-interpolation-filters="sRGB">
<feFlood flood-opacity="0" result="BackgroundImageFix"/>
<feBlend mode="normal" in="SourceGraphic" in2="BackgroundImageFix" result="shape"/>
<feGaussianBlur stdDeviation="1.18312" result="effect1_foregroundBlur_1047_63085"/>
</filter>
<filter id="filter2_f_1047_63085" x="47.8039" y="93.3879" width="58.8245" height="50.6916" filterUnits="userSpaceOnUse" color-interpolation-filters="sRGB">
<feFlood flood-opacity="0" result="BackgroundImageFix"/>
<feBlend mode="normal" in="SourceGraphic" in2="BackgroundImageFix" result="shape"/>
<feGaussianBlur stdDeviation="1.18312" result="effect1_foregroundBlur_1047_63085"/>
</filter>
<filter id="filter3_f_1047_63085" x="95.0913" y="91.1167" width="57.9346" height="50.6933" filterUnits="userSpaceOnUse" color-interpolation-filters="sRGB">
<feFlood flood-opacity="0" result="BackgroundImageFix"/>
<feBlend mode="normal" in="SourceGraphic" in2="BackgroundImageFix" result="shape"/>
<feGaussianBlur stdDeviation="1.18312" result="effect1_foregroundBlur_1047_63085"/>
</filter>
<linearGradient id="paint0_linear_1047_63085" x1="70.625" y1="65.9688" x2="70.625" y2="136.75" gradientUnits="userSpaceOnUse">
<stop stop-color="#D877B1"/>
<stop offset="0.463542" stop-color="#9B89C2"/>
<stop offset="1" stop-color="#33A6DD"/>
</linearGradient>
<linearGradient id="paint1_linear_1047_63085" x1="70.8594" y1="5.5" x2="70.8594" y2="61.75" gradientUnits="userSpaceOnUse">
<stop stop-color="#D877B1"/>
<stop offset="0.463542" stop-color="#9B89C2"/>
<stop offset="1" stop-color="#33A6DD"/>
</linearGradient>
<linearGradient id="paint2_linear_1047_63085" x1="59.2962" y1="16.914" x2="76.66" y2="29.922" gradientUnits="userSpaceOnUse">
<stop stop-color="white" stop-opacity="0.76"/>
<stop offset="1" stop-color="white" stop-opacity="0"/>
</linearGradient>
<linearGradient id="paint3_linear_1047_63085" x1="20.4929" y1="136.51" x2="31.1796" y2="117.628" gradientUnits="userSpaceOnUse">
<stop stop-color="white" stop-opacity="0.76"/>
<stop offset="1" stop-color="white" stop-opacity="0"/>
</linearGradient>
<linearGradient id="paint4_linear_1047_63085" x1="74.6811" y1="136.976" x2="74.4724" y2="115.281" gradientUnits="userSpaceOnUse">
<stop stop-color="white" stop-opacity="0.76"/>
<stop offset="1" stop-color="white" stop-opacity="0"/>
</linearGradient>
<linearGradient id="paint5_linear_1047_63085" x1="122.428" y1="134.448" x2="121.384" y2="112.777" gradientUnits="userSpaceOnUse">
<stop stop-color="white" stop-opacity="0.76"/>
<stop offset="1" stop-color="white" stop-opacity="0"/>
</linearGradient>
</defs>
</svg>
