<svg width="308" height="158" viewBox="0 0 308 158" fill="none" xmlns="http://www.w3.org/2000/svg">
<g filter="url(#filter0_d_4204_6512)">
<g clip-path="url(#clip0_4204_6512)">
<rect x="4" width="300" height="150" rx="10" fill="white"/>
<path d="M4 10C4 4.47715 8.47715 0 14 0H294C299.523 0 304 4.47715 304 10V27C304 40.8071 292.807 52 279 52H4V10Z" fill="#5C86B4"/>
<path d="M15.232 20V8.72H17.28V20H15.232ZM21.364 20V8.72H23.076L27.076 16.096L31.06 8.72H32.74V20H30.884V12.4L27.652 18.288H26.452L23.22 12.432V20H21.364ZM36.8226 20V8.72H41.7186C42.956 8.72 43.9106 9.02933 44.5826 9.648C45.2546 10.2667 45.5906 11.1307 45.5906 12.24C45.5906 13.3493 45.2546 14.2187 44.5826 14.848C43.9106 15.4667 42.956 15.776 41.7186 15.776H38.8706V20H36.8226ZM38.8706 14.16H41.3986C42.8706 14.16 43.6066 13.52 43.6066 12.24C43.6066 10.9707 42.8706 10.336 41.3986 10.336H38.8706V14.16ZM53.838 20.16C52.75 20.16 51.7953 19.92 50.974 19.44C50.1633 18.96 49.534 18.288 49.086 17.424C48.638 16.5493 48.414 15.5253 48.414 14.352C48.414 13.168 48.638 12.144 49.086 11.28C49.534 10.416 50.1633 9.74933 50.974 9.28C51.7847 8.8 52.7393 8.56 53.838 8.56C54.9367 8.56 55.8913 8.8 56.702 9.28C57.5127 9.74933 58.142 10.416 58.59 11.28C59.038 12.144 59.262 13.1627 59.262 14.336C59.262 15.52 59.038 16.5493 58.59 17.424C58.142 18.288 57.5127 18.96 56.702 19.44C55.8913 19.92 54.9367 20.16 53.838 20.16ZM53.838 18.4C54.8727 18.4 55.678 18.0427 56.254 17.328C56.83 16.6133 57.118 15.6213 57.118 14.352C57.118 13.072 56.83 12.08 56.254 11.376C55.6887 10.672 54.8833 10.32 53.838 10.32C52.8033 10.32 51.998 10.672 51.422 11.376C50.846 12.08 50.558 13.072 50.558 14.352C50.558 15.6213 50.846 16.6133 51.422 17.328C51.998 18.0427 52.8033 18.4 53.838 18.4ZM62.9445 20V8.72H67.8405C69.0778 8.72 70.0325 9.01867 70.7045 9.616C71.3765 10.2027 71.7125 11.0293 71.7125 12.096C71.7125 12.9387 71.4938 13.6373 71.0565 14.192C70.6192 14.736 69.9898 15.104 69.1685 15.296C69.7125 15.4667 70.1605 15.8773 70.5125 16.528L72.4005 20H70.1445L68.1925 16.4C68.0005 16.048 67.7712 15.808 67.5045 15.68C67.2485 15.552 66.9178 15.488 66.5125 15.488H64.9925V20H62.9445ZM64.9925 13.968H67.4885C68.9818 13.968 69.7285 13.36 69.7285 12.144C69.7285 10.9387 68.9818 10.336 67.4885 10.336H64.9925V13.968ZM77.9208 20V10.432H74.0488V8.72H83.8408V10.432H79.9688V20H77.9208Z" fill="white"/>
<path d="M15.232 42V30.72H17.28V35.712H17.312L22.288 30.72H24.784L19.296 36.144L25.056 42H22.528L17.312 36.784H17.28V42H15.232ZM29.041 42.16C28.4757 42.16 27.969 42.0533 27.521 41.84C27.0837 41.616 26.737 41.3173 26.481 40.944C26.2357 40.5707 26.113 40.1493 26.113 39.68C26.113 39.104 26.2623 38.6507 26.561 38.32C26.8597 37.9787 27.345 37.7333 28.017 37.584C28.689 37.4347 29.5903 37.36 30.721 37.36H31.281V37.024C31.281 36.4907 31.1637 36.1067 30.929 35.872C30.6943 35.6373 30.2997 35.52 29.745 35.52C29.3077 35.52 28.8597 35.5893 28.401 35.728C27.9423 35.856 27.4783 36.0587 27.009 36.336L26.433 34.976C26.7103 34.784 27.0357 34.6187 27.409 34.48C27.793 34.3307 28.193 34.2187 28.609 34.144C29.0357 34.0587 29.4357 34.016 29.809 34.016C30.9503 34.016 31.7983 34.2827 32.353 34.816C32.9077 35.3387 33.185 36.1547 33.185 37.264V42H31.313V40.752C31.1317 41.1893 30.8437 41.536 30.449 41.792C30.0543 42.0373 29.585 42.16 29.041 42.16ZM29.457 40.784C29.9797 40.784 30.4117 40.6027 30.753 40.24C31.105 39.8773 31.281 39.4187 31.281 38.864V38.512H30.737C29.7343 38.512 29.0357 38.592 28.641 38.752C28.257 38.9013 28.065 39.1787 28.065 39.584C28.065 39.936 28.1877 40.224 28.433 40.448C28.6783 40.672 29.0197 40.784 29.457 40.784ZM36.015 42V34.176H37.967V35.552C38.351 34.624 39.1723 34.112 40.431 34.016L41.039 33.968L41.167 35.664L40.015 35.776C38.703 35.904 38.047 36.576 38.047 37.792V42H36.015ZM44.269 44.88L45.709 41.68L42.461 34.176H44.589L46.781 39.648L49.021 34.176H51.037L46.333 44.88H44.269ZM55.2066 42.16C54.6413 42.16 54.1346 42.0533 53.6866 41.84C53.2493 41.616 52.9026 41.3173 52.6466 40.944C52.4013 40.5707 52.2786 40.1493 52.2786 39.68C52.2786 39.104 52.428 38.6507 52.7266 38.32C53.0253 37.9787 53.5106 37.7333 54.1826 37.584C54.8546 37.4347 55.756 37.36 56.8866 37.36H57.4466V37.024C57.4466 36.4907 57.3293 36.1067 57.0946 35.872C56.86 35.6373 56.4653 35.52 55.9106 35.52C55.4733 35.52 55.0253 35.5893 54.5666 35.728C54.108 35.856 53.644 36.0587 53.1746 36.336L52.5986 34.976C52.876 34.784 53.2013 34.6187 53.5746 34.48C53.9586 34.3307 54.3586 34.2187 54.7746 34.144C55.2013 34.0587 55.6013 34.016 55.9746 34.016C57.116 34.016 57.964 34.2827 58.5186 34.816C59.0733 35.3387 59.3506 36.1547 59.3506 37.264V42H57.4786V40.752C57.2973 41.1893 57.0093 41.536 56.6146 41.792C56.22 42.0373 55.7506 42.16 55.2066 42.16ZM55.6226 40.784C56.1453 40.784 56.5773 40.6027 56.9186 40.24C57.2706 39.8773 57.4466 39.4187 57.4466 38.864V38.512H56.9026C55.9 38.512 55.2013 38.592 54.8066 38.752C54.4226 38.9013 54.2306 39.1787 54.2306 39.584C54.2306 39.936 54.3533 40.224 54.5986 40.448C54.844 40.672 55.1853 40.784 55.6226 40.784ZM64.2625 42L61.1745 34.176H63.2225L65.2225 39.68L67.2385 34.176H68.6465L70.6625 39.712L72.6625 34.176H74.5985L71.5265 42H69.7825L67.8785 36.96L66.0065 42H64.2625ZM78.9629 42.16C78.3975 42.16 77.8909 42.0533 77.4429 41.84C77.0055 41.616 76.6589 41.3173 76.4029 40.944C76.1575 40.5707 76.0349 40.1493 76.0349 39.68C76.0349 39.104 76.1842 38.6507 76.4829 38.32C76.7815 37.9787 77.2669 37.7333 77.9389 37.584C78.6109 37.4347 79.5122 37.36 80.6429 37.36H81.2029V37.024C81.2029 36.4907 81.0855 36.1067 80.8509 35.872C80.6162 35.6373 80.2215 35.52 79.6669 35.52C79.2295 35.52 78.7815 35.5893 78.3229 35.728C77.8642 35.856 77.4002 36.0587 76.9309 36.336L76.3549 34.976C76.6322 34.784 76.9575 34.6187 77.3309 34.48C77.7149 34.3307 78.1149 34.2187 78.5309 34.144C78.9575 34.0587 79.3575 34.016 79.7309 34.016C80.8722 34.016 81.7202 34.2827 82.2749 34.816C82.8295 35.3387 83.1069 36.1547 83.1069 37.264V42H81.2349V40.752C81.0535 41.1893 80.7655 41.536 80.3709 41.792C79.9762 42.0373 79.5069 42.16 78.9629 42.16ZM79.3789 40.784C79.9015 40.784 80.3335 40.6027 80.6749 40.24C81.0269 39.8773 81.2029 39.4187 81.2029 38.864V38.512H80.6589C79.6562 38.512 78.9575 38.592 78.5629 38.752C78.1789 38.9013 77.9869 39.1787 77.9869 39.584C77.9869 39.936 78.1095 40.224 78.3549 40.448C78.6002 40.672 78.9415 40.784 79.3789 40.784ZM85.9369 42V34.176H87.8889V35.392C88.1555 34.944 88.5129 34.6027 88.9609 34.368C89.4195 34.1333 89.9315 34.016 90.4969 34.016C92.3422 34.016 93.2649 35.088 93.2649 37.232V42H91.2649V37.328C91.2649 36.72 91.1475 36.2773 90.9129 36C90.6889 35.7227 90.3369 35.584 89.8569 35.584C89.2702 35.584 88.8009 35.7707 88.4489 36.144C88.1075 36.5067 87.9369 36.992 87.9369 37.6V42H85.9369ZM101.401 42V30.72H103.449V42H101.401ZM106.509 42V34.176H108.461V35.392C108.727 34.944 109.085 34.6027 109.533 34.368C109.991 34.1333 110.503 34.016 111.069 34.016C112.914 34.016 113.837 35.088 113.837 37.232V42H111.837V37.328C111.837 36.72 111.719 36.2773 111.485 36C111.261 35.7227 110.909 35.584 110.429 35.584C109.842 35.584 109.373 35.7707 109.021 36.144C108.679 36.5067 108.509 36.992 108.509 37.6V42H106.509ZM120.252 42.16C118.183 42.16 117.148 41.136 117.148 39.088V35.68H115.644V34.176H117.148V31.84H119.148V34.176H121.516V35.68H119.148V38.976C119.148 39.488 119.26 39.872 119.484 40.128C119.708 40.384 120.071 40.512 120.572 40.512C120.721 40.512 120.876 40.496 121.036 40.464C121.196 40.4213 121.361 40.3787 121.532 40.336L121.836 41.808C121.644 41.9147 121.399 42 121.1 42.064C120.812 42.128 120.529 42.16 120.252 42.16ZM127.387 42.16C126.501 42.16 125.739 41.9947 125.099 41.664C124.459 41.3333 123.963 40.864 123.611 40.256C123.269 39.648 123.099 38.928 123.099 38.096C123.099 37.2853 123.264 36.576 123.595 35.968C123.936 35.36 124.4 34.8853 124.987 34.544C125.584 34.192 126.261 34.016 127.019 34.016C128.128 34.016 129.003 34.368 129.643 35.072C130.293 35.776 130.619 36.736 130.619 37.952V38.544H125.019C125.168 39.9413 125.968 40.64 127.419 40.64C127.856 40.64 128.293 40.576 128.731 40.448C129.168 40.3093 129.568 40.096 129.931 39.808L130.491 41.152C130.117 41.4613 129.648 41.7067 129.083 41.888C128.517 42.0693 127.952 42.16 127.387 42.16ZM127.099 35.376C126.512 35.376 126.037 35.5573 125.675 35.92C125.312 36.2827 125.093 36.7733 125.019 37.392H128.955C128.912 36.7413 128.731 36.2453 128.411 35.904C128.101 35.552 127.664 35.376 127.099 35.376ZM133.003 42V34.176H134.955V35.552C135.339 34.624 136.16 34.112 137.419 34.016L138.027 33.968L138.155 35.664L137.003 35.776C135.691 35.904 135.035 36.576 135.035 37.792V42H133.003ZM140.068 42V34.176H142.02V35.392C142.287 34.944 142.644 34.6027 143.092 34.368C143.551 34.1333 144.063 34.016 144.628 34.016C146.473 34.016 147.396 35.088 147.396 37.232V42H145.396V37.328C145.396 36.72 145.279 36.2773 145.044 36C144.82 35.7227 144.468 35.584 143.988 35.584C143.401 35.584 142.932 35.7707 142.58 36.144C142.239 36.5067 142.068 36.992 142.068 37.6V42H140.068ZM152.804 42.16C152.238 42.16 151.732 42.0533 151.284 41.84C150.846 41.616 150.5 41.3173 150.243 40.944C149.998 40.5707 149.876 40.1493 149.876 39.68C149.876 39.104 150.025 38.6507 150.324 38.32C150.622 37.9787 151.108 37.7333 151.78 37.584C152.452 37.4347 153.353 37.36 154.484 37.36H155.044V37.024C155.044 36.4907 154.926 36.1067 154.692 35.872C154.457 35.6373 154.062 35.52 153.508 35.52C153.07 35.52 152.622 35.5893 152.164 35.728C151.705 35.856 151.241 36.0587 150.772 36.336L150.196 34.976C150.473 34.784 150.798 34.6187 151.172 34.48C151.556 34.3307 151.956 34.2187 152.372 34.144C152.798 34.0587 153.198 34.016 153.572 34.016C154.713 34.016 155.561 34.2827 156.116 34.816C156.67 35.3387 156.948 36.1547 156.948 37.264V42H155.076V40.752C154.894 41.1893 154.606 41.536 154.212 41.792C153.817 42.0373 153.348 42.16 152.804 42.16ZM153.22 40.784C153.742 40.784 154.174 40.6027 154.516 40.24C154.868 39.8773 155.044 39.4187 155.044 38.864V38.512H154.5C153.497 38.512 152.798 38.592 152.404 38.752C152.02 38.9013 151.828 39.1787 151.828 39.584C151.828 39.936 151.95 40.224 152.196 40.448C152.441 40.672 152.782 40.784 153.22 40.784ZM162.498 42.16C161.57 42.16 160.882 41.9093 160.434 41.408C159.996 40.896 159.778 40.1493 159.778 39.168V30.72H161.778V39.072C161.778 40.032 162.183 40.512 162.994 40.512C163.111 40.512 163.228 40.5067 163.346 40.496C163.463 40.4853 163.575 40.464 163.682 40.432L163.65 42.016C163.266 42.112 162.882 42.16 162.498 42.16Z" fill="white"/>
<path d="M24 124.226V115.129C24 107.593 30.7157 101.484 39 101.484H69C77.2843 101.484 84 107.593 84 115.129V124.226M54 60.5488C46.3596 60.5488 39 65.9629 39 74.194C39 81.1443 44.9516 87.8392 54 87.8392C63.0484 87.8392 69 81.1443 69 74.194C69 65.9629 61.6404 60.5488 54 60.5488Z" stroke="#323232" stroke-width="5" stroke-linecap="round" stroke-linejoin="round"/>
<g clip-path="url(#clip1_4204_6512)">
<path d="M69.5625 118.162H61.7847V114.625C61.7847 112.661 60.0542 111.087 57.8958 111.087H50.1181C47.9597 111.087 46.2292 112.661 46.2292 114.625V118.162H38.4514C36.2931 118.162 34.5819 119.736 34.5819 121.7L34.5625 141.157C34.5625 143.12 36.2931 144.694 38.4514 144.694H69.5625C71.7208 144.694 73.4514 143.12 73.4514 141.157V121.7C73.4514 119.736 71.7208 118.162 69.5625 118.162ZM57.8958 118.162H50.1181V114.625H57.8958V118.162Z" fill="#323232"/>
</g>
<g filter="url(#filter1_d_4204_6512)">
<path d="M235 130C235 142.15 223.583 152 209.5 152C195.417 152 184 142.15 184 130C184 117.85 195.417 108 209.5 108C223.583 108 235 117.85 235 130Z" fill="#C2D6F6"/>
<path d="M209 145C209 157.15 197.583 167 183.5 167C169.417 167 158 157.15 158 145C158 132.85 169.417 123 183.5 123C197.583 123 209 132.85 209 145Z" fill="#C2D6F6"/>
<path d="M174 158C174 170.15 162.583 180 148.5 180C134.417 180 123 170.15 123 158C123 145.85 134.417 136 148.5 136C162.583 136 174 145.85 174 158Z" fill="#C2D6F6"/>
<path d="M268 114C268 126.15 256.583 136 242.5 136C228.417 136 217 126.15 217 114C217 101.85 228.417 92 242.5 92C256.583 92 268 101.85 268 114Z" fill="#C2D6F6"/>
<path d="M266 136C266 148.15 254.583 158 240.5 158C226.417 158 215 148.15 215 136C215 123.85 226.417 114 240.5 114C254.583 114 266 123.85 266 136Z" fill="#C2D6F6"/>
<path d="M298 108C298 120.15 286.583 130 272.5 130C258.417 130 247 120.15 247 108C247 95.8497 258.417 86 272.5 86C286.583 86 298 95.8497 298 108Z" fill="#C2D6F6"/>
<path d="M319 83C319 95.1503 307.583 105 293.5 105C279.417 105 268 95.1503 268 83C268 70.8497 279.417 61 293.5 61C307.583 61 319 70.8497 319 83Z" fill="#C2D6F6"/>
<path d="M323 112C323 124.15 311.583 134 297.5 134C283.417 134 272 124.15 272 112C272 99.8497 283.417 90 297.5 90C311.583 90 323 99.8497 323 112Z" fill="#C2D6F6"/>
<path d="M305 140C305 152.15 293.583 162 279.5 162C265.417 162 254 152.15 254 140C254 127.85 265.417 118 279.5 118C293.583 118 305 127.85 305 140Z" fill="#C2D6F6"/>
</g>
</g>
</g>
<defs>
<filter id="filter0_d_4204_6512" x="0" y="0" width="308" height="158" filterUnits="userSpaceOnUse" color-interpolation-filters="sRGB">
<feFlood flood-opacity="0" result="BackgroundImageFix"/>
<feColorMatrix in="SourceAlpha" type="matrix" values="0 0 0 0 0 0 0 0 0 0 0 0 0 0 0 0 0 0 127 0" result="hardAlpha"/>
<feOffset dy="4"/>
<feGaussianBlur stdDeviation="2"/>
<feComposite in2="hardAlpha" operator="out"/>
<feColorMatrix type="matrix" values="0 0 0 0 0 0 0 0 0 0 0 0 0 0 0 0 0 0 0.25 0"/>
<feBlend mode="normal" in2="BackgroundImageFix" result="effect1_dropShadow_4204_6512"/>
<feBlend mode="normal" in="SourceGraphic" in2="effect1_dropShadow_4204_6512" result="shape"/>
</filter>
<filter id="filter1_d_4204_6512" x="117" y="61" width="206" height="119" filterUnits="userSpaceOnUse" color-interpolation-filters="sRGB">
<feFlood flood-opacity="0" result="BackgroundImageFix"/>
<feColorMatrix in="SourceAlpha" type="matrix" values="0 0 0 0 0 0 0 0 0 0 0 0 0 0 0 0 0 0 127 0" result="hardAlpha"/>
<feOffset dx="-6"/>
<feComposite in2="hardAlpha" operator="out"/>
<feColorMatrix type="matrix" values="0 0 0 0 0.572549 0 0 0 0 0.713726 0 0 0 0 0.941176 0 0 0 1 0"/>
<feBlend mode="normal" in2="BackgroundImageFix" result="effect1_dropShadow_4204_6512"/>
<feBlend mode="normal" in="SourceGraphic" in2="effect1_dropShadow_4204_6512" result="shape"/>
</filter>
<clipPath id="clip0_4204_6512">
<rect x="4" width="300" height="150" rx="10" fill="white"/>
</clipPath>
<clipPath id="clip1_4204_6512">
<rect width="46.6667" height="42.4516" fill="white" transform="translate(30.6719 107.549)"/>
</clipPath>
</defs>
</svg>
