<svg width="151" height="151" viewBox="0 0 151 151" fill="none" xmlns="http://www.w3.org/2000/svg">
<g id="mobile-payment-debit-card-phone-svgrepo-com 1">
<path id="Vector" d="M70.7812 9.4375H23.5938C15.5719 9.4375 9.4375 15.5719 9.4375 23.5938V117.969C9.4375 125.991 15.5719 132.125 23.5938 132.125H33.0312C35.8625 132.125 37.75 130.238 37.75 127.406C37.75 124.575 35.8625 122.688 33.0312 122.688H23.5938C20.7625 122.688 18.875 120.8 18.875 117.969V23.5938C18.875 20.7625 20.7625 18.875 23.5938 18.875H28.3125V20.2906C28.3125 27.3688 33.975 33.0312 41.0531 33.0312H53.3219C60.4 33.0312 66.0625 27.3688 66.0625 20.2906V18.875H70.7812C73.6125 18.875 75.5 20.7625 75.5 23.5938V66.0625C75.5 68.8937 77.3875 70.7812 80.2188 70.7812C83.05 70.7812 84.9375 68.8937 84.9375 66.0625V23.5938C84.9375 15.5719 78.8031 9.4375 70.7812 9.4375Z" fill="url(#paint0_linear_1047_62741)"/>
<g id="Group">
<path id="Vector_2" d="M146.281 80.2188V75.5C146.281 67.4781 140.147 61.3438 132.125 61.3438H42.4688C34.4469 61.3438 28.3125 67.4781 28.3125 75.5V80.2188H146.281Z" fill="url(#paint1_linear_1047_62741)"/>
<path id="Vector_3" d="M28.3125 89.6562V127.406C28.3125 135.428 34.4469 141.562 42.4688 141.562H132.125C140.147 141.562 146.281 135.428 146.281 127.406V89.6562H28.3125ZM117.025 122.688C114.666 122.688 112.306 121.744 110.419 119.856C108.531 121.744 106.172 122.688 103.812 122.688C98.6219 122.688 94.375 118.441 94.375 113.25C94.375 108.059 98.6219 103.812 103.812 103.812C106.172 103.812 108.531 104.756 110.419 106.644C112.306 104.756 114.666 103.812 117.025 103.812C122.216 103.812 126.462 108.059 126.462 113.25C126.462 118.441 122.216 122.688 117.025 122.688Z" fill="url(#paint2_linear_1047_62741)"/>
<g id="Vector_4" filter="url(#filter0_f_1047_62741)">
<path d="M87.1326 63.0048C99.6675 63.0048 112.202 62.996 124.737 63.0091C136.222 63.0223 143.931 69.9277 143.965 80.3253C144.009 93.7842 144.014 107.239 143.965 120.698C143.926 130.941 136.217 137.948 124.903 137.965C99.5897 138.009 74.2815 138.014 48.9684 137.965C37.6641 137.943 30.0226 130.88 30.0128 120.623C29.9982 107.164 29.9934 93.7094 30.0128 80.2506C30.0274 70.0025 37.7274 63.0267 49.0414 63.0091C61.7368 62.9916 74.4323 63.0048 87.1326 63.0048Z" fill="url(#paint3_linear_1047_62741)"/>
</g>
<g id="Vector 34" filter="url(#filter1_f_1047_62741)">
<path d="M36 76.0987C36.4302 73.7325 38.4523 69 43.0987 69" stroke="url(#paint4_linear_1047_62741)" stroke-width="2.36625" stroke-linecap="round"/>
</g>
</g>
<g id="Vector_5" filter="url(#filter2_f_1047_62741)">
<path d="M39.0628 12.0029C45.0004 12.0029 50.938 11.9975 56.8756 12.0056C62.3155 12.0137 65.9674 16.249 65.9836 22.6262C66.0043 30.881 66.0066 39.1331 65.9836 47.3878C65.9651 53.6706 62.3132 57.968 56.9539 57.9787C44.9635 58.0057 32.9754 58.0084 20.985 57.9787C15.6304 57.9653 12.0107 53.6328 12.0061 47.342C11.9992 39.0872 11.9969 30.8351 12.0061 22.5803C12.013 16.2949 15.6603 12.0164 21.0196 12.0056C27.0332 11.9948 33.0469 12.0029 39.0628 12.0029Z" fill="url(#paint5_linear_1047_62741)"/>
</g>
<g id="Vector 34_2" filter="url(#filter3_f_1047_62741)">
<path d="M15 21.0987C15.4302 18.7325 17.4523 14 22.0987 14" stroke="url(#paint6_linear_1047_62741)" stroke-width="2.36625" stroke-linecap="round"/>
</g>
</g>
<defs>
<filter id="filter0_f_1047_62741" x="27.6338" y="60.6338" width="118.732" height="79.7325" filterUnits="userSpaceOnUse" color-interpolation-filters="sRGB">
<feFlood flood-opacity="0" result="BackgroundImageFix"/>
<feBlend mode="normal" in="SourceGraphic" in2="BackgroundImageFix" result="shape"/>
<feGaussianBlur stdDeviation="1.18312" result="effect1_foregroundBlur_1047_62741"/>
</filter>
<filter id="filter1_f_1047_62741" x="33.6335" y="66.6338" width="11.8316" height="11.8315" filterUnits="userSpaceOnUse" color-interpolation-filters="sRGB">
<feFlood flood-opacity="0" result="BackgroundImageFix"/>
<feBlend mode="normal" in="SourceGraphic" in2="BackgroundImageFix" result="shape"/>
<feGaussianBlur stdDeviation="0.591562" result="effect1_foregroundBlur_1047_62741"/>
</filter>
<filter id="filter2_f_1047_62741" x="9.63375" y="9.63375" width="58.7325" height="50.7325" filterUnits="userSpaceOnUse" color-interpolation-filters="sRGB">
<feFlood flood-opacity="0" result="BackgroundImageFix"/>
<feBlend mode="normal" in="SourceGraphic" in2="BackgroundImageFix" result="shape"/>
<feGaussianBlur stdDeviation="1.18312" result="effect1_foregroundBlur_1047_62741"/>
</filter>
<filter id="filter3_f_1047_62741" x="12.6335" y="11.6338" width="11.8316" height="11.8315" filterUnits="userSpaceOnUse" color-interpolation-filters="sRGB">
<feFlood flood-opacity="0" result="BackgroundImageFix"/>
<feBlend mode="normal" in="SourceGraphic" in2="BackgroundImageFix" result="shape"/>
<feGaussianBlur stdDeviation="0.591562" result="effect1_foregroundBlur_1047_62741"/>
</filter>
<linearGradient id="paint0_linear_1047_62741" x1="47.1875" y1="9.4375" x2="47.1875" y2="132.125" gradientUnits="userSpaceOnUse">
<stop stop-color="#D877B1"/>
<stop offset="0.463542" stop-color="#9B89C2"/>
<stop offset="1" stop-color="#33A6DD"/>
</linearGradient>
<linearGradient id="paint1_linear_1047_62741" x1="87.2969" y1="61.3438" x2="87.2969" y2="80.2188" gradientUnits="userSpaceOnUse">
<stop stop-color="#D877B1"/>
<stop offset="0.463542" stop-color="#9B89C2"/>
<stop offset="1" stop-color="#33A6DD"/>
</linearGradient>
<linearGradient id="paint2_linear_1047_62741" x1="87.2969" y1="89.6562" x2="87.2969" y2="141.562" gradientUnits="userSpaceOnUse">
<stop stop-color="#D877B1"/>
<stop offset="0.463542" stop-color="#9B89C2"/>
<stop offset="1" stop-color="#33A6DD"/>
</linearGradient>
<linearGradient id="paint3_linear_1047_62741" x1="39.3488" y1="70.3953" x2="68.9818" y2="119.309" gradientUnits="userSpaceOnUse">
<stop stop-color="white" stop-opacity="0.76"/>
<stop offset="1" stop-color="white" stop-opacity="0"/>
</linearGradient>
<linearGradient id="paint4_linear_1047_62741" x1="42.4534" y1="69" x2="34.8529" y2="76.1741" gradientUnits="userSpaceOnUse">
<stop stop-color="white"/>
<stop offset="1" stop-color="white" stop-opacity="0.11"/>
</linearGradient>
<linearGradient id="paint5_linear_1047_62741" x1="16.4284" y1="16.5358" x2="36.344" y2="41.9244" gradientUnits="userSpaceOnUse">
<stop stop-color="white" stop-opacity="0.76"/>
<stop offset="1" stop-color="white" stop-opacity="0"/>
</linearGradient>
<linearGradient id="paint6_linear_1047_62741" x1="21.4534" y1="14" x2="13.8529" y2="21.1741" gradientUnits="userSpaceOnUse">
<stop stop-color="white"/>
<stop offset="1" stop-color="white" stop-opacity="0.11"/>
</linearGradient>
</defs>
</svg>
