<svg width="339" height="306" viewBox="0 0 339 306" fill="none" xmlns="http://www.w3.org/2000/svg">
<path d="M160.43 1.08945C134.673 6.62245 112.562 17.6147 91.8735 35.1727C86.7014 39.5991 74.4828 52.4357 70.1438 58.0056C50.5316 83.3467 38.7989 112.672 35.1195 145.685C34.3211 152.546 34.0434 168.555 34.5641 175.822C35.0847 182.867 36.0567 190.687 37.2369 196.736C38.1394 201.458 40.4651 211.27 41.2982 213.741L41.7842 215.18L42.3395 214.294C43.8669 211.749 167.198 0.241043 167.198 0.130386C167.198 -0.201599 164.942 0.0935059 160.43 1.08945Z" fill="url(#paint0_linear_2155_77693)" fill-opacity="0.8"/>
<path d="M310.046 241.352C324.869 216.07 333.571 190.548 337.023 162.223C337.862 155.119 338.311 136.882 337.818 129.787C335.484 97.6182 324.955 69.7135 306.298 46.4009C302.444 41.5274 292.322 31.5037 287.265 27.5037C282.351 23.639 276.615 19.6844 271.872 16.9894C268.184 14.8701 260.197 10.8488 258.009 10.0462L256.734 9.57983L256.909 10.5933C257.459 13.448 305.759 247.626 305.831 247.694C306.045 247.897 307.466 245.798 310.046 241.352Z" fill="url(#paint1_linear_2155_77693)" fill-opacity="0.8"/>
<path d="M193.907 85.6541L220.285 183.865H130.207L193.907 85.6541Z" fill="url(#paint2_linear_2155_77693)" fill-opacity="0.8"/>
<path d="M90.2092 255.319C87.6753 259.598 85.6967 263.25 85.8008 263.434C85.9049 263.619 87.7447 265.315 89.8968 267.234C108.364 283.648 129.295 295.009 152.482 301.206C165.742 304.71 175.74 306.001 190.284 306.001C208.751 306.001 223.052 303.567 240.2 297.518C245.788 295.526 247.038 294.972 246.899 294.456C246.795 294.124 244.191 283.464 241.102 270.701L235.479 247.573H165.152H94.8259L90.2092 255.319Z" fill="url(#paint3_linear_2155_77693)" fill-opacity="0.8"/>
<g clip-path="url(#clip0_2155_77693)">
<path d="M200.613 278.129H185.766C185.418 278.129 185.114 277.851 185.114 277.518V277.296C185.114 276.962 185.403 276.684 185.766 276.684H200.613C200.96 276.684 201.264 276.962 201.264 277.296V277.518C201.264 277.851 200.975 278.129 200.613 278.129ZM163.893 276.684C164.253 276.684 164.545 277.008 164.545 277.407C164.545 277.806 164.253 278.129 163.893 278.129H140.283C139.923 278.129 139.631 277.806 139.631 277.407C139.631 277.008 139.923 276.684 140.283 276.684H163.893Z" fill="#474961"/>
<path d="M163.967 276.688C163.944 276.686 163.92 276.684 163.896 276.684H140.387C140.371 276.596 140.363 276.485 140.366 276.342C140.382 276.23 140.384 276.101 140.415 275.974C140.601 275.206 140.826 274.697 141.485 274.244C142.144 273.791 142.817 273.387 143.518 273.031C146.103 271.684 146.987 271.701 148.687 270.465C149.39 269.949 150.037 269.351 150.641 268.704C151.044 268.273 151.867 267.573 153.108 266.603L163.967 266.88V276.688ZM200.669 276.686C200.651 276.685 200.634 276.684 200.616 276.684H185.818L187.13 267.594L196.864 266.36L200.669 276.686Z" fill="#303030"/>
<path d="M168.387 178.04C168.883 177.42 169.437 176.848 170.046 176.333C171.816 175.596 175.195 174.816 177.605 175.667C180.424 176.663 182.164 179.384 182.164 179.384C182.164 179.384 182.577 178.907 186.889 192.256C189.763 201.155 192.553 213.214 195.257 228.433C195.516 230.137 197.01 239.749 199.739 257.268C199.741 257.283 199.743 257.297 199.745 257.311C199.859 258.189 199.311 259.003 198.519 259.13L183.421 261.553C182.694 261.67 182.004 261.165 181.814 260.379C179.931 252.574 178.913 248.307 178.76 247.579C178.43 246.126 178.105 244.48 177.77 242.595L175.128 228.438C175.102 228.301 175.052 227.856 174.977 227.102C173.745 222.092 172.691 217.809 171.816 214.251C171.112 217.245 170.351 220.455 169.532 223.882C169.134 243.097 168.837 254.023 168.64 256.662C168.61 257.07 168.513 258.573 168.35 261.17C168.296 262.042 167.622 262.705 166.835 262.662L151.27 261.818C150.529 261.777 149.935 261.123 149.895 260.302C149.206 246.457 149.662 233.434 151.261 221.231C153.744 202.292 157.495 194.553 159.732 187.268C159.757 187.181 161.532 184.066 165.057 177.921C166.283 177.929 167.393 177.969 168.387 178.04Z" fill="#4A62B4"/>
<path opacity="0.176986" d="M166.227 182.161C165.406 184.633 165.266 187.377 165.918 190.032C166.831 193.751 167.744 197.469 168.657 201.188C168.657 201.188 169.717 205.496 171.836 214.112C171.128 217.146 170.36 220.402 169.533 223.882C169.125 243.036 168.822 253.933 168.626 256.572C168.492 258.367 168.392 259.893 168.325 261.149C168.278 262.029 167.6 262.703 166.806 262.658L151.227 261.786C150.486 261.744 149.893 261.088 149.854 260.267C149.194 246.445 149.663 233.433 151.262 221.231C153.745 202.292 157.451 194.519 159.689 187.234C159.709 187.164 162.906 184.479 166.227 182.161Z" fill="#275382"/>
<path d="M164.961 151.818C165.274 151.691 165.585 151.583 165.887 151.491L165.827 150.287C165.818 150.112 165.938 149.961 166.096 149.949L172.891 149.424C173.051 149.412 173.189 149.546 173.201 149.722L173.244 150.402C176.951 149.9 179.115 149.786 179.736 150.058C185.497 152.588 186.449 163.572 186.419 166.913C186.411 167.809 185.119 168.614 182.543 169.326C182.824 172.363 182.989 174.079 183.085 174.97C183.085 174.97 183.083 175.128 183.115 175.362C183.197 176.048 163.626 182.763 163.626 182.763C163.611 182.748 163.597 182.75 163.597 182.75C163.597 182.75 163.319 182.698 162.976 182.51C162.805 182.432 162.632 182.323 162.455 182.166C161.146 181.031 160.935 178.197 160.908 177.506C160.891 177.287 160.877 177.115 160.877 177.115C160.823 176.083 160.692 173.995 160.432 170.101C159.504 170.544 158.492 170.995 157.396 171.453L157.437 155.43C157.44 154.284 158.053 153.249 159 152.79C161.109 151.769 163.096 151.445 164.961 151.818Z" fill="#303030"/>
<path d="M163.969 266.886H161.35L153.108 266.603L153.531 261.899L164.038 262.465L163.969 266.886ZM185.774 261.142L196.021 259.501L196.864 266.36L187.129 267.594L185.774 261.142ZM172.679 143.525V149.46L167.069 149.885L167.147 148.59C166.346 148.817 166.392 148.79 166.315 148.809C165.383 148.958 164.608 148.836 164.467 148.788C163.953 148.68 163.451 148.142 163.039 147.277C162.479 146.124 162.049 144.376 161.924 142.328C161.894 142.036 161.907 141.75 161.92 141.463L162.133 138.621C162.179 137.986 162.369 137.367 162.712 136.83C162.851 136.59 162.986 136.397 163.147 136.24C164.88 134.262 167.587 134.895 168.069 135.031C168.125 135.053 168.183 135.06 168.239 135.083C168.757 135.303 169.256 135.408 169.759 135.482C169.99 135.509 170.156 135.753 170.131 136.006L169.729 140.059C169.868 139.979 172.053 139.014 172.662 139.501C173.164 139.909 173.377 142.453 172.679 143.525ZM160.992 179.37L161.141 179.225C161.208 179.225 161.246 179.229 161.259 179.237L173.268 173.228L173.516 170.807C178.832 170.169 182.51 169.416 184.548 168.549C184.583 174.776 184.169 178.359 183.305 179.296C181.345 181.421 171.142 186.673 160.927 188.09C158.644 189.212 154.868 190.029 149.598 190.541C148.094 189.475 147.287 187.614 147.175 184.956L150.835 183.561C150.686 183.505 150.61 183.463 150.61 183.463C149.819 181.458 159.85 179.684 161.13 179.301L160.992 179.37ZM157.995 171.068C153.063 173.584 145.123 175.497 143 172.756C140.221 169.166 139.855 159.392 141.903 143.433C137.434 142.336 134.338 141.143 132.616 139.855C132.15 139.507 131.876 138.92 131.889 138.299C131.911 137.289 132.669 136.49 133.583 136.513C137.96 136.627 140.733 136.617 141.903 136.485C141.932 136.482 141.961 136.479 141.991 136.476C145.54 136.131 148.672 139.029 148.984 142.949L150.327 159.764L157.433 155.975L157.425 171.308C157.618 171.228 157.808 171.148 157.995 171.068Z" fill="#FFC096"/>
<path opacity="0.176986" d="M164.85 151.788C163.549 152.335 162.222 153.224 161.335 154.668C161.081 155.087 160.761 155.717 160.544 156.605C160.513 156.735 160.481 156.848 160.45 156.977C160.376 157.252 160.217 157.836 160.089 158.463C159.953 159.17 159.894 160.5 159.917 162.343L159.921 162.39L159.954 163.16C160.144 165.946 160.298 168.23 160.423 170.096C159.501 170.538 158.495 170.986 157.406 171.442L157.437 155.424C157.439 154.281 158.048 153.247 158.992 152.786C161.06 151.775 163.012 151.442 164.85 151.788V151.788Z" fill="#444444"/>
<path d="M167.149 148.628L169.371 148.014L167.068 149.939L167.149 148.628Z" fill="#482D1F"/>
<path d="M171.452 144.187L171.465 144.185C171.662 144.112 172.236 143.889 172.62 143.226C173.004 142.563 173.136 141.63 172.73 140.844C172.338 140.075 171.511 139.578 170.795 139.752C170.393 139.85 170.102 140.153 170.07 140.182C169.629 140.677 169.488 141.24 169.488 141.24L169.415 141.626C169.336 141.495 169.263 141.365 169.197 141.238C168.288 139.927 167.38 138.6 166.473 137.273C165.88 137.381 164.941 137.449 163.899 137.071C163.534 136.932 163.224 136.671 162.949 136.495C163.032 136.392 163.113 136.305 163.181 136.2C164.452 134.628 166.793 134.675 167.847 134.925C167.975 134.956 168.43 135.073 169.088 135.198C169.445 135.271 169.733 135.305 169.905 135.341C172.042 135.685 172.919 135.498 173.939 136.259C174.13 136.393 174.564 136.733 174.914 137.336C175.902 139.042 175.435 141.045 175.305 141.641C174.873 143.423 173.861 144.322 173.529 144.75C172.863 145.621 171.999 144.75 171.999 144.75C171.999 144.75 171.777 144.533 171.452 144.187Z" fill="#482D1F"/>
<path d="M152.815 185.586C152.931 185.554 153.049 185.633 153.078 185.762C153.107 185.891 153.036 186.022 152.919 186.054C152.188 186.254 151.615 186.389 150.337 186.676C149.064 186.961 148.495 187.096 147.772 187.294C147.656 187.326 147.538 187.247 147.509 187.118C147.48 186.989 147.551 186.859 147.668 186.827C148.399 186.626 148.972 186.491 150.25 186.204C151.523 185.919 152.092 185.784 152.815 185.586ZM154.486 187.981C154.604 187.957 154.717 188.044 154.738 188.174C154.76 188.305 154.682 188.431 154.564 188.455C153.755 188.618 153.132 188.761 151.744 189.09C150.353 189.42 149.726 189.563 148.912 189.728C148.794 189.752 148.681 189.665 148.659 189.534C148.638 189.403 148.716 189.278 148.834 189.254C149.642 189.09 150.266 188.948 151.653 188.619C153.045 188.289 153.672 188.145 154.486 187.981Z" fill="#482D1F"/>
<path d="M162.788 141.593C162.788 141.869 162.8 142.342 162.665 142.543C162.456 142.843 162.024 142.045 162.155 141.503C162.233 141.29 162.334 141.213 162.45 141.219C162.627 141.221 162.775 141.396 162.788 141.593ZM165.903 141.775C165.917 142.053 165.929 142.527 165.78 142.725C165.57 143.025 165.139 142.227 165.27 141.684C165.348 141.472 165.449 141.394 165.565 141.401C165.741 141.403 165.89 141.578 165.903 141.775Z" fill="#482D1F"/>
<path d="M164.067 141.915L163.801 143.486C163.801 143.491 163.818 143.519 163.825 143.521C163.903 143.536 163.984 143.546 164.11 143.557C164.135 143.559 164.161 143.561 164.198 143.564C164.244 143.568 164.27 143.57 164.295 143.572C164.378 143.579 164.448 143.585 164.522 143.592C164.601 143.6 164.66 143.677 164.653 143.766C164.646 143.854 164.576 143.919 164.496 143.912C164.424 143.905 164.356 143.899 164.273 143.892C164.249 143.89 164.223 143.888 164.177 143.884C164.139 143.881 164.113 143.879 164.088 143.877C163.953 143.865 163.864 143.854 163.775 143.837C163.611 143.805 163.487 143.611 163.516 143.429L163.782 141.856C163.797 141.768 163.873 141.711 163.952 141.727C164.03 141.744 164.082 141.828 164.067 141.915Z" fill="#482D1F"/>
<path d="M168.506 141.807C168.517 141.99 168.509 142.178 168.479 142.366C168.282 143.602 167.215 144.426 166.097 144.208C165.156 144.025 164.478 143.163 164.403 142.159L163.929 142.122C163.729 143.353 162.664 144.173 161.548 143.956C160.429 143.739 159.682 142.561 159.879 141.325C160.077 140.09 161.143 139.266 162.262 139.483C163.236 139.673 163.929 140.591 163.961 141.641L164.414 141.677C164.418 141.644 164.423 141.611 164.428 141.577C164.625 140.342 165.692 139.518 166.811 139.735C167.606 139.89 168.214 140.531 168.428 141.333L169.399 141.179C169.518 141.16 169.628 141.252 169.645 141.383C169.662 141.515 169.579 141.637 169.46 141.656L168.506 141.807ZM163.526 141.8C163.563 140.915 162.999 140.116 162.187 139.958C161.304 139.786 160.463 140.436 160.307 141.409C160.152 142.382 160.741 143.31 161.623 143.482C162.506 143.654 163.347 143.003 163.503 142.03C163.51 141.985 163.515 141.94 163.519 141.896C163.518 141.88 163.517 141.864 163.518 141.848C163.519 141.831 163.522 141.815 163.526 141.8ZM168.051 142.282C168.207 141.31 167.618 140.382 166.736 140.21C165.853 140.038 165.011 140.688 164.856 141.661C164.7 142.634 165.289 143.562 166.172 143.734C167.054 143.906 167.896 143.256 168.051 142.282Z" fill="#482D1F"/>
<path d="M164.625 144.862C164.733 144.835 164.995 144.756 165.035 144.601C165.04 144.57 165.062 144.525 165.036 144.504C164.977 144.411 164.793 144.457 164.524 144.485C164.047 144.523 163.671 144.482 163.671 144.482C163.671 144.482 163.774 144.762 163.849 144.841C163.993 145.048 164.47 144.913 164.625 144.862Z" fill="#482D1F"/>
<path d="M173.825 170.786C173.794 169.372 173.771 168.135 173.754 167.075C173.737 166.015 173.713 164.275 173.683 161.853C173.681 161.72 173.582 161.614 173.462 161.616C173.342 161.618 173.246 161.727 173.248 161.86C173.279 164.282 173.302 166.023 173.319 167.084C173.336 168.145 173.36 169.382 173.39 170.797C173.393 170.93 173.493 171.035 173.613 171.032C173.733 171.029 173.828 170.919 173.825 170.786Z" fill="#482D1F"/>
</g>
<g clip-path="url(#clip1_2155_77693)">
<path d="M79.3365 280.554L79.338 280.65C79.3286 281.016 79.0428 281.308 78.6915 281.315L54.3321 281.273C53.9805 281.263 53.7007 280.966 53.6949 280.6L53.6934 280.505C53.7029 280.138 53.9886 279.846 54.3399 279.84L78.684 279.882C79.0507 279.875 79.3304 280.172 79.3365 280.554ZM14.5205 281.156L14.485 281.164L0.234887 268.924C-0.0258425 268.701 -0.0837825 268.271 0.133492 268.001L0.176947 267.921C0.307312 267.746 0.510102 267.651 0.712892 267.667C0.828772 267.667 0.930167 267.714 1.03156 267.794L15.2153 279.844L22.9772 279.863C23.3103 279.856 23.5758 280.154 23.5961 280.519L23.5976 280.615C23.589 280.981 23.3183 281.273 22.9852 281.279L14.4953 281.251C14.5037 281.22 14.5121 281.188 14.5205 281.156Z" fill="#303030"/>
<path d="M79.1307 280.119C79.014 279.996 78.8516 279.923 78.6672 279.926L54.3231 279.884C54.2844 279.884 54.2465 279.889 54.2096 279.896L55.1869 269.994L66.3124 269.959C67.6508 270.921 68.5214 271.615 68.9242 272.042C69.5283 272.684 70.1752 273.276 70.8787 273.788C72.5787 275.013 73.4621 274.996 76.0476 276.332C76.7486 276.685 77.4213 277.086 78.0804 277.535C78.7395 277.984 78.9648 278.489 79.1507 279.25C79.1817 279.376 79.1837 279.504 79.2 279.615C79.204 279.866 79.1763 280.016 79.1307 280.119ZM1.01367 267.837L6.08342 260.219L14.7744 267.462L15.0526 268.449C16.0665 272.354 16.6169 274.413 16.7038 274.626C16.8084 274.874 16.9168 275.104 17.0307 275.327C17.8183 275.679 18.7126 276.024 20.0788 276.775C20.7741 277.141 21.4404 277.555 22.0923 278.016C22.7441 278.478 22.9614 278.987 23.1352 279.751C23.1498 279.816 23.157 279.88 23.1625 279.942C23.0993 279.918 23.0314 279.905 22.9604 279.907L15.1984 279.888L1.0147 267.838C1.01436 267.838 1.01401 267.838 1.01367 267.837Z" fill="#303030"/>
<path d="M43.7117 190.853C43.755 190.86 43.7983 190.867 43.8417 190.876C44.2609 190.963 44.6523 191.169 44.9776 191.472C57.5152 203.164 64.9304 212.835 67.2232 220.485C68.5235 224.823 69.6713 235.985 70.6666 253.97C70.8512 257.305 68.541 260.172 65.5066 260.375C65.4427 260.379 65.3788 260.382 65.3148 260.384L56.1851 260.644C53.1928 260.729 50.6872 258.17 50.5448 254.884L49.3277 226.808C47.3265 224.483 45.5828 222.435 44.0966 220.664C43.74 222.8 43.1897 225.056 42.3004 228.074C40.8184 233.103 34.7807 243.043 24.1874 257.893L23.7803 258.489C22.0549 261.016 18.8511 261.658 16.4254 259.963L9.61281 255.204C7.04729 253.412 6.28951 249.674 7.92026 246.854C7.98807 246.737 8.05954 246.622 8.13454 246.51L23.3063 223.886C23.668 214.916 24.3839 207.069 25.4542 200.345C27.0596 190.258 39.0771 190.476 43.6254 190.642C43.6546 190.711 43.6834 190.781 43.7117 190.853Z" fill="#4A62B4"/>
<path opacity="0.176986" d="M43.7031 190.851C43.7495 190.858 43.7959 190.866 43.8425 190.876C44.2616 190.963 44.653 191.168 44.9783 191.471C57.5159 203.164 64.9311 212.835 67.224 220.484C68.5242 224.822 69.672 235.984 70.6674 253.969C70.8519 257.304 68.5417 260.172 65.5074 260.374C65.4435 260.379 65.3795 260.382 65.3155 260.384L56.1859 260.643C53.1936 260.728 50.688 258.17 50.5455 254.884L49.3284 226.807C47.3285 224.484 45.5857 222.437 44.1001 220.666C44.7568 216.72 44.7541 213.174 45.009 205.973C45.2654 198.729 44.8301 193.689 43.7031 190.851Z" fill="#444444"/>
<path d="M52.3379 153.492L142.793 146.54L146.865 210.537C146.977 212.291 145.773 213.812 144.177 213.935L59.5019 220.442C57.9058 220.565 56.5215 219.242 56.4099 217.488L52.3379 153.492Z" fill="#FAFAFA"/>
<path d="M57.1855 160.165L59.8968 159.956C60.0564 159.944 60.1948 160.076 60.206 160.252L60.2807 161.426C60.2918 161.601 60.1715 161.753 60.0119 161.766L57.3006 161.974C57.141 161.986 57.0026 161.854 56.9914 161.679L56.9167 160.504C56.9055 160.329 57.0259 160.177 57.1855 160.165ZM127.083 154.793L138.839 153.89C138.999 153.877 139.137 154.01 139.149 154.185L139.223 155.359C139.235 155.535 139.114 155.687 138.955 155.699L127.198 156.602C127.038 156.615 126.9 156.482 126.889 156.307L126.814 155.133C126.803 154.957 126.923 154.805 127.083 154.793ZM104.88 156.499L116.637 155.596C116.796 155.584 116.935 155.716 116.946 155.891L117.021 157.065C117.032 157.241 116.912 157.393 116.752 157.405L104.995 158.309C104.836 158.321 104.697 158.189 104.686 158.013L104.611 156.839C104.6 156.664 104.72 156.512 104.88 156.499ZM118.859 155.425L124.86 154.964C125.02 154.952 125.158 155.084 125.169 155.259L125.244 156.433C125.255 156.609 125.135 156.761 124.975 156.773L118.975 157.234C118.815 157.247 118.677 157.114 118.665 156.939L118.591 155.765C118.58 155.589 118.7 155.437 118.859 155.425Z" fill="#D8DEED"/>
<path d="M84.3695 165.372L64.4872 167.027C63.9549 167.071 63.5509 167.575 63.5848 168.151L66.1021 210.987C66.136 211.563 66.595 211.995 67.1273 211.951L87.0096 210.297C87.5419 210.252 87.9459 209.749 87.912 209.172L85.3947 166.337C85.3608 165.76 84.9018 165.328 84.3695 165.372Z" fill="#D8DEED"/>
<path d="M77.2161 209.688C78.0614 209.617 78.7038 208.83 78.6509 207.929C78.5981 207.028 77.87 206.354 77.0247 206.425C76.1794 206.495 75.537 207.283 75.5898 208.184C75.6427 209.085 76.3708 209.758 77.2161 209.688Z" fill="#F2F6FB"/>
<path d="M75.742 168.715L73.5097 168.899C73.2843 168.918 73.1132 169.129 73.1276 169.372C73.1419 169.614 73.3363 169.795 73.5617 169.777L75.7939 169.592C76.0194 169.574 76.1905 169.362 76.1761 169.12C76.1618 168.877 75.9674 168.696 75.742 168.715Z" fill="#F2F6FB"/>
<path d="M83.9443 170.495L65.5059 172.03L67.5322 206.529L85.9707 204.994L83.9443 170.495Z" fill="#F2F6FB"/>
<path d="M94.6054 176.835L131.854 173.972C132.014 173.96 132.152 174.092 132.163 174.268L132.353 177.251C132.364 177.427 132.244 177.579 132.084 177.591L94.8357 180.453C94.676 180.466 94.5376 180.333 94.5265 180.158L94.3366 177.175C94.3255 176.999 94.4458 176.847 94.6054 176.835ZM94.9796 182.715L117.838 180.959C117.997 180.946 118.136 181.079 118.147 181.254L118.337 184.237C118.348 184.413 118.228 184.565 118.068 184.577L95.2098 186.334C95.0502 186.346 94.9118 186.214 94.9006 186.038L94.7108 183.055C94.6996 182.88 94.82 182.727 94.9796 182.715ZM95.3537 188.596L126.846 186.175C127.006 186.163 127.144 186.295 127.155 186.471L127.345 189.454C127.356 189.63 127.236 189.782 127.076 189.794L95.584 192.214C95.4244 192.227 95.2859 192.094 95.2748 191.919L95.0849 188.935C95.0738 188.76 95.1941 188.608 95.3537 188.596Z" fill="#E1E5F0"/>
<path d="M124.901 168.597L94.2304 170.954C94.0708 170.967 93.9505 171.119 93.9616 171.294L94.1515 174.278C94.1626 174.453 94.301 174.585 94.4607 174.573L125.131 172.216C125.29 172.204 125.411 172.052 125.4 171.876L125.21 168.893C125.199 168.717 125.06 168.585 124.901 168.597Z" fill="#D8DEED"/>
<path d="M98.4033 197.907L113.491 196.748C114.405 196.677 114.771 196.76 115.137 196.941C115.504 197.121 115.8 197.404 116.014 197.778C116.228 198.152 116.353 198.539 116.417 199.543L116.495 200.769C116.559 201.774 116.484 202.176 116.319 202.578C116.155 202.981 115.897 203.307 115.557 203.542C115.217 203.777 114.865 203.915 113.951 203.985L98.8638 205.144C97.9495 205.215 97.5835 205.132 97.2171 204.951C96.8506 204.771 96.554 204.487 96.3404 204.114C96.1268 203.74 96.0011 203.353 95.9372 202.349L95.8592 201.123C95.7953 200.118 95.8708 199.716 96.035 199.314C96.1992 198.911 96.457 198.585 96.797 198.35C97.137 198.115 97.489 197.977 98.4033 197.907Z" fill="#4B61DD"/>
<path d="M52.0654 149.204C51.9538 147.45 53.1572 145.929 54.7546 145.806L139.427 139.299C141.024 139.176 142.409 140.499 142.521 142.253L142.814 146.858L52.3584 153.809L52.0654 149.204Z" fill="#E1E5F0"/>
<path d="M56.9228 151.384C57.7607 151.32 58.3925 150.521 58.3339 149.6C58.2753 148.679 57.5485 147.985 56.7106 148.049C55.8726 148.114 55.2409 148.912 55.2995 149.833C55.358 150.754 56.0848 151.448 56.9228 151.384Z" fill="#FF5645"/>
<path d="M61.9794 150.995C62.8173 150.931 63.4491 150.132 63.3905 149.211C63.3319 148.29 62.6052 147.596 61.7672 147.661C60.9293 147.725 60.2975 148.524 60.3561 149.445C60.4147 150.365 61.1415 151.06 61.9794 150.995Z" fill="#FFCB3D"/>
<path d="M67.1825 150.595C68.0205 150.531 68.6522 149.732 68.5937 148.811C68.5351 147.891 67.8083 147.196 66.9703 147.261C66.1324 147.325 65.5006 148.124 65.5592 149.045C65.6178 149.965 66.3446 150.66 67.1825 150.595Z" fill="#3ABF7C"/>
<path d="M25.1917 178.087L23.5896 178.413C23.5296 178.425 23.4687 178.43 23.4078 178.428C22.9279 178.414 22.5497 177.974 22.5628 177.447C22.691 172.317 23.1616 168.97 23.9745 167.406C24.2125 166.948 24.5191 166.579 24.8737 166.293C26.3236 164.781 28.7906 163.928 31.7327 163.378L32.5458 163.22C33.8034 162.986 35.0148 163.004 36.1396 163.226C37.543 163.285 39.2706 163.643 40.8417 164.781C41.0909 164.959 41.6229 165.341 42.2093 165.971C42.2093 165.971 43.3604 167.186 44.8627 171.324C45.0368 171.815 45.2899 172.63 45.6218 173.769C45.7438 174.188 45.5338 174.636 45.1529 174.77C45.1269 174.779 45.1004 174.787 45.0736 174.792L43.252 175.191L43.732 181.695C43.7454 181.87 43.7563 182.029 43.7839 182.202C43.9005 183.02 43.9045 184.054 43.4244 185.003C42.7362 186.398 41.6434 188.387 35.9274 189.43C30.6108 190.396 29.0645 188.918 28.0175 187.892C27.2683 187.164 26.9537 186.029 26.8137 185.248C26.7861 185.075 26.7466 184.921 26.7047 184.752L25.1917 178.087Z" fill="#F1F5F9"/>
<path opacity="0.176986" d="M36.1144 163.223C38.9348 163.773 41.2131 165.609 42.3112 167.99C42.6703 168.761 42.8539 169.63 42.9042 170.493L43.2508 175.191L45.0665 174.803C45.0934 174.797 45.12 174.79 45.1461 174.781C45.5275 174.648 45.7391 174.201 45.6187 173.782C45.2891 172.635 45.0371 171.815 44.8628 171.324C43.3605 167.186 42.2094 165.971 42.2094 165.971C41.623 165.341 41.091 164.959 40.8419 164.781C39.2459 163.625 37.5211 163.274 36.1144 163.223Z" fill="#303030"/>
<path d="M55.6535 260.608C55.815 260.619 55.9783 260.623 56.1431 260.618L65.2728 260.358C65.3368 260.357 65.4007 260.354 65.4646 260.349C66.0057 260.313 66.5237 260.192 67.0086 259.999L66.2621 269.95H55.1246L55.6535 260.608ZM18.1868 260.749L14.773 267.462L6.08203 260.219L9.12078 254.829C9.26394 254.952 9.41399 255.069 9.57079 255.178L16.3834 259.937C16.9515 260.334 17.5623 260.603 18.1868 260.749ZM50.3862 186.811L52.4911 187.068C53.388 186.549 61.5572 181.891 62.0898 184.15C62.0898 184.15 62.0544 184.232 61.9715 184.373L65.7753 182.942C67.8728 186.169 66.0972 191.213 66.069 191.23C61.2152 193.571 57.5713 194.814 55.1374 194.961C54.8563 194.978 54.6051 194.958 54.3838 194.902C54.38 194.931 54.3762 194.961 54.3724 194.99C46.6933 196.002 38.6428 195.628 30.221 193.866C28.1947 193.442 25.9531 188.259 23.4962 178.317C23.52 178.314 23.5437 178.311 23.5672 178.306L33.0207 176.385C33.1053 176.368 33.1847 176.338 33.2575 176.297L35.5866 185.006L42.7449 185.879C42.9795 185.532 43.15 185.197 43.3011 184.892C43.7811 183.942 43.7771 182.908 43.6605 182.09C43.6329 181.918 43.622 181.758 43.6086 181.583L43.236 175.133L44.9742 174.814C45.0128 174.807 45.2639 174.735 45.2639 174.735L47.1498 178.898C48.7712 177.911 53.5204 171.79 53.5204 171.79C53.5204 171.79 53.7455 175.123 54.2476 182.445L50.3862 186.811ZM34.9378 161.425L35.1037 162.938C38.0431 163.07 39.3791 164.326 39.8293 164.874C39.8293 164.874 36.728 165.496 30.5254 166.741C28.8527 165.267 26.363 164.933 24.8164 166.215C25.6751 165.301 27.1584 164.514 29.2662 163.854C29.8177 163.682 30.3426 163.537 30.8423 163.417L30.3022 157.772C30.2707 157.753 30.2393 157.732 30.2079 157.71C29.643 157.299 29.2167 156.535 29.2978 155.638C29.3659 154.81 29.9299 153.671 30.6165 153.535C31.0017 153.455 32.0773 153.814 32.0013 153.441C31.9506 153.192 31.654 151.873 31.1115 149.484C31.0655 149.234 31.1987 148.98 31.4225 148.914C31.93 148.781 32.4319 148.749 32.9298 148.454C32.9858 148.437 33.038 148.406 33.094 148.389C33.5547 148.188 36.1193 147.02 38.0778 148.718C38.245 148.85 38.4094 149.032 38.5776 149.23C38.9746 149.69 39.2365 150.272 39.3585 150.895L39.9176 153.681C39.9571 153.966 40.0106 154.246 40.0221 154.54C40.235 158.119 39.4375 160.876 38.2847 161.314C38.1485 161.37 37.3967 161.608 36.4515 161.606C36.3601 161.6 36.4413 161.626 35.1385 161.449C35.0698 161.441 35.0029 161.433 34.9378 161.425Z" fill="#FFD7C6"/>
<path opacity="0.2" d="M50.2679 186.827L54.2396 182.397C53.7377 175.06 53.5215 171.79 53.5215 171.79C53.5215 171.79 48.7695 177.888 47.1481 178.874L45.265 174.735C45.265 174.735 45.0478 174.815 44.5408 174.894L43.2371 175.133L43.6072 181.68C43.6206 181.855 43.6315 182.014 43.6591 182.187C43.7757 183.005 43.7797 184.038 43.2997 184.988C43.1575 185.276 42.9981 185.589 42.7843 185.915L50.2679 186.827Z" fill="#8C2A00"/>
<path d="M61.5273 186.99C62.2438 186.764 62.7975 186.568 64.0294 186.115C65.2672 185.661 65.8249 185.463 66.5493 185.234C66.6647 185.198 66.785 185.271 66.8181 185.398C66.8513 185.525 66.7846 185.657 66.6693 185.693C65.9528 185.92 65.3992 186.116 64.1672 186.568C62.9295 187.023 62.3717 187.221 61.6473 187.449C61.532 187.486 61.4116 187.412 61.3785 187.286C61.3454 187.159 61.412 187.027 61.5273 186.99ZM61.1484 190.268C61.9284 189.963 62.5364 189.742 63.8918 189.263C65.2431 188.785 65.8482 188.565 66.6227 188.263C66.7357 188.219 66.86 188.283 66.9002 188.408C66.9404 188.532 66.8814 188.668 66.7683 188.713C65.9883 189.018 65.3803 189.238 64.0249 189.718C62.6736 190.195 62.0685 190.415 61.294 190.718C61.181 190.762 61.0567 190.697 61.0165 190.573C60.9763 190.448 61.0354 190.312 61.1484 190.268Z" fill="#482D1F"/>
<path d="M26.1347 153.649C26.1231 153.034 26.2133 152.363 26.5008 151.702C26.7753 151.045 27.1733 150.647 27.3429 150.482C28.2778 149.58 29.1783 149.645 31.2937 148.972C31.7377 148.825 32.3916 148.616 33.1526 148.293C33.2123 148.292 33.2645 148.26 33.3205 148.244C33.7812 148.042 36.3079 147.15 38.1637 148.795C38.1712 148.826 38.4513 148.991 38.4485 149.041C38.4485 149.041 36.5183 153.614 32.4843 154.546C32.3763 154.419 32.0902 154.116 31.6611 153.924C31.6117 153.905 31.2616 153.761 30.8764 153.842C30.1898 153.978 29.6327 154.768 29.5645 155.596C29.4759 156.462 29.8984 157.212 30.4494 157.626C31.0004 158.041 31.5938 158.014 31.7869 158.007L32.0135 157.935C32.2092 158.347 32.3455 158.791 32.1874 159.129C31.8821 159.783 31.3137 160.161 30.4823 160.262C29.7133 161.331 28.4558 162.078 26.9968 162.19C24.483 162.383 22.323 160.62 22.1724 158.252C22.0281 155.985 23.7786 153.985 26.1347 153.649ZM40.1821 152.886C39.9275 153.01 39.4911 153.188 39.0618 153.15C38.3937 153.116 38.9333 152.561 39.5145 152.423C39.7981 152.356 40.0454 152.448 40.2013 152.534C40.3255 152.613 40.3145 152.814 40.1821 152.886ZM37.4678 153.685C37.1992 153.813 36.7627 153.991 36.3195 153.957C35.6551 153.939 36.191 153.369 36.7722 153.231C37.0697 153.159 37.3171 153.251 37.473 153.337C37.6112 153.412 37.6002 153.613 37.4678 153.685Z" fill="#482D1F"/>
<path d="M39.423 154.379C39.4059 154.186 39.5121 154.006 39.68 153.957C39.7919 153.924 39.9049 153.957 39.9993 154.16C40.2173 154.623 39.956 155.458 39.7066 155.235C39.5217 155.091 39.4587 154.648 39.423 154.379ZM36.91 155.02C36.893 154.827 36.9992 154.647 37.1671 154.598C37.279 154.565 37.3919 154.598 37.4864 154.801C37.7043 155.264 37.443 156.099 37.1936 155.876C37.0087 155.732 36.9317 155.294 36.91 155.02Z" fill="#482D1F"/>
<path d="M38.3651 157.92C38.2596 157.918 37.9993 157.896 37.9161 157.739C37.9086 157.708 37.8833 157.666 37.8898 157.631C37.9233 157.523 38.1164 157.515 38.3758 157.472C38.8347 157.386 39.1873 157.233 39.1873 157.233C39.1873 157.233 39.1503 157.573 39.0991 157.671C39.0192 157.958 38.5302 157.921 38.3651 157.92Z" fill="#482D1F"/>
<path d="M38.7244 154.71L39.2895 156.295L39.2946 156.312C39.3355 156.48 39.269 156.666 39.1235 156.739C39.0962 156.75 39.0809 156.756 39.0656 156.762C38.9202 156.816 38.8143 156.849 38.4331 156.961C38.3559 156.984 38.2764 156.933 38.2557 156.848C38.235 156.763 38.2809 156.676 38.3582 156.653C38.7326 156.543 38.8355 156.511 38.9726 156.46C38.9869 156.455 39.0011 156.449 39.0154 156.444C39.0122 156.445 39.0196 156.424 39.016 156.4L38.4508 154.815L38.4445 154.793L38.2513 153.878C38.2332 153.792 38.2818 153.706 38.3597 153.687C38.4376 153.667 38.5155 153.72 38.5335 153.806L38.7244 154.71Z" fill="#482D1F"/>
<path d="M33.5257 176.28C33.1735 174.79 32.7975 173.242 32.3976 171.634C32.366 171.507 32.2465 171.432 32.1307 171.467C32.015 171.501 31.9468 171.633 31.9784 171.76C32.3779 173.366 32.7534 174.912 33.1051 176.4C33.1353 176.528 33.2539 176.605 33.37 176.571C33.4862 176.538 33.5559 176.408 33.5257 176.28Z" fill="#482D1F"/>
</g>
<path d="M73.7293 178.592C72.7206 178.882 71.8687 179.379 71.0879 180.133C70.8928 180.322 70.4372 180.865 70.2776 181.098C69.5569 182.158 69.1576 183.354 69.0857 184.675C69.0694 184.949 69.0943 185.586 69.1313 185.873C69.1677 186.151 69.2238 186.459 69.2841 186.696C69.3305 186.881 69.4447 187.264 69.4832 187.36L69.5057 187.416L69.5258 187.379C69.5806 187.274 73.9957 178.54 73.9955 178.536C73.9947 178.522 73.9059 178.54 73.7293 178.592Z" fill="#303030"/>
<path d="M71.5711 189.825C71.4802 190.002 71.4099 190.152 71.4145 190.159C71.419 190.166 71.4958 190.229 71.5854 190.299C72.3543 190.9 73.2095 191.294 74.1427 191.477C74.6762 191.579 75.0754 191.603 75.652 191.564C76.3841 191.513 76.9456 191.377 77.6118 191.09C77.8289 190.996 77.8772 190.971 77.8706 190.951C77.8657 190.938 77.7386 190.522 77.5875 190.023L77.3127 189.12L74.5247 189.313L71.7367 189.505L71.5711 189.825Z" fill="#303030"/>
<path d="M80.2268 188.238C80.7578 187.193 81.0456 186.157 81.1189 185.023C81.1363 184.738 81.1131 184.013 81.0777 183.733C80.9131 182.462 80.4331 181.383 79.6412 180.508C79.4775 180.326 79.0537 179.955 78.8443 179.81C78.6408 179.67 78.4045 179.529 78.2105 179.435C78.0595 179.361 77.7339 179.223 77.6453 179.197L77.5938 179.182L77.6029 179.222C77.6311 179.334 80.071 188.498 80.074 188.501C80.0829 188.508 80.1345 188.421 80.2268 188.238Z" fill="#303030"/>
<path d="M75.2753 182.373L76.5412 186.2L72.9702 186.446L75.2753 182.373Z" fill="#303030"/>
<defs>
<linearGradient id="paint0_linear_2155_77693" x1="100.749" y1="215.18" x2="235.134" y2="63.3515" gradientUnits="userSpaceOnUse">
<stop offset="1" stop-color="#22445C"/>
</linearGradient>
<linearGradient id="paint1_linear_2155_77693" x1="297.379" y1="9.57983" x2="432.001" y2="93.6448" gradientUnits="userSpaceOnUse">
<stop offset="1" stop-color="#22445C"/>
</linearGradient>
<linearGradient id="paint2_linear_2155_77693" x1="175.246" y1="85.6541" x2="229.597" y2="176.844" gradientUnits="userSpaceOnUse">
<stop stop-color="#3F83B1"/>
<stop offset="1" stop-color="#22445C"/>
</linearGradient>
<linearGradient id="paint3_linear_2155_77693" x1="166.353" y1="306.001" x2="180.378" y2="235.258" gradientUnits="userSpaceOnUse">
<stop offset="1" stop-color="#22445C"/>
</linearGradient>
<clipPath id="clip0_2155_77693">
<rect width="147.167" height="152.048" fill="white" transform="translate(91.832 126.081)"/>
</clipPath>
<clipPath id="clip1_2155_77693">
<rect width="147.167" height="142.951" fill="white" transform="translate(0 139.077)"/>
</clipPath>
</defs>
</svg>
