<svg width="222" height="131" viewBox="0 0 222 131" fill="none" xmlns="http://www.w3.org/2000/svg">
<path d="M146.57 0.41946C135.631 2.54948 126.24 6.78111 117.453 13.5404C115.256 15.2444 110.067 20.186 108.224 22.3302C99.8943 32.0857 94.9113 43.3748 93.3485 56.0839C93.0095 58.7251 92.8915 64.888 93.1126 67.6854C93.3338 70.3976 93.7466 73.408 94.2478 75.7369C94.6312 77.5545 95.6189 81.3317 95.9727 82.2831L96.1791 82.8369L96.415 82.4961C97.0637 81.5163 149.445 0.0928565 149.445 0.0502562C149.445 -0.0775448 148.486 0.0360569 146.57 0.41946Z" fill="#F9F9F9"/>
<path d="M116.745 107.489C115.669 109.136 114.829 110.542 114.873 110.613C114.917 110.684 115.698 111.337 116.612 112.075C124.456 118.394 133.345 122.768 143.194 125.153C148.825 126.503 153.071 127 159.248 127C167.092 127 173.166 126.062 180.448 123.733C182.822 122.967 183.353 122.754 183.294 122.555C183.25 122.427 182.144 118.323 180.832 113.41L178.443 104.507H148.575H118.706L116.745 107.489Z" fill="#F9F9F9"/>
<path d="M210.115 97.9164C216.411 88.1835 220.106 78.3586 221.573 67.4543C221.929 64.7195 222.12 57.6988 221.91 54.9676C220.919 42.5837 216.447 31.8413 208.523 22.8668C206.886 20.9906 202.587 17.1319 200.439 15.592C198.352 14.1042 195.916 12.5818 193.902 11.5443C192.335 10.7285 188.943 9.1804 188.014 8.87141L187.473 8.69189L187.547 9.08205C187.78 10.181 208.294 100.332 208.325 100.358C208.416 100.436 209.019 99.6279 210.115 97.9164Z" fill="#F9F9F9"/>
<path d="M160.789 37.978L171.992 75.7858H133.734L160.789 37.978Z" fill="#F9F9F9"/>
<g clip-path="url(#clip0_4084_6474)">
<path d="M169.398 127.105H156.787C156.492 127.105 156.233 126.891 156.233 126.635V126.464C156.233 126.207 156.48 125.993 156.787 125.993H169.398C169.693 125.993 169.951 126.207 169.951 126.464V126.635C169.951 126.891 169.705 127.105 169.398 127.105ZM138.209 125.993C138.515 125.993 138.763 126.242 138.763 126.549C138.763 126.856 138.515 127.105 138.209 127.105H118.155C117.849 127.105 117.602 126.856 117.602 126.549C117.602 126.242 117.849 125.993 118.155 125.993H138.209Z" fill="#474961"/>
<path d="M138.269 125.996C138.25 125.994 138.23 125.993 138.209 125.993H118.241C118.228 125.925 118.221 125.84 118.223 125.73C118.237 125.643 118.239 125.545 118.265 125.446C118.423 124.856 118.614 124.464 119.174 124.115C119.734 123.767 120.305 123.456 120.901 123.182C123.097 122.145 123.847 122.158 125.291 121.207C125.888 120.81 126.438 120.35 126.951 119.853C127.293 119.521 127.992 118.982 129.046 118.236L138.269 118.449V125.996ZM169.443 125.995C169.428 125.994 169.413 125.993 169.398 125.993H156.829L157.943 118.998L166.211 118.048L169.443 125.995Z" fill="#474961"/>
<path d="M142.026 50.0865C142.447 49.6098 142.917 49.1693 143.434 48.7731C144.938 48.2057 147.808 47.6058 149.855 48.2608C152.249 49.0267 153.727 51.1212 153.727 51.1212C153.727 51.1212 154.078 50.7541 157.74 61.0258C160.182 67.8735 162.551 77.1528 164.848 88.8637C165.068 90.1749 166.337 97.5711 168.655 111.052C168.657 111.063 168.658 111.074 168.66 111.085C168.757 111.761 168.291 112.387 167.619 112.485L154.795 114.35C154.178 114.439 153.591 114.051 153.43 113.446C151.831 107.44 150.966 104.157 150.836 103.597C150.555 102.478 150.28 101.212 149.995 99.7612L147.751 88.8677C147.729 88.7621 147.686 88.4195 147.623 87.8398C146.576 83.9847 145.681 80.6883 144.938 77.9507C144.34 80.2546 143.694 82.725 142.998 85.3618C142.66 100.147 142.408 108.555 142.241 110.586C142.215 110.9 142.133 112.056 141.994 114.055C141.948 114.726 141.376 115.236 140.707 115.203L127.487 114.553C126.857 114.522 126.353 114.019 126.318 113.387C125.734 102.733 126.121 92.7117 127.479 83.322C129.588 68.7487 132.774 62.7935 134.674 57.1877C134.695 57.1209 136.203 54.7234 139.197 49.9952C140.238 50.0013 141.181 50.0318 142.026 50.0865Z" fill="#275382"/>
<path opacity="0.176986" d="M140.188 53.2578C139.491 55.1598 139.371 57.2719 139.925 59.3145C140.701 62.176 141.476 65.0374 142.252 67.8989C142.252 67.8989 143.152 71.2138 144.952 77.8437C144.35 80.1783 143.698 82.6843 142.996 85.362C142.649 100.101 142.392 108.486 142.225 110.517C142.111 111.898 142.026 113.072 141.97 114.039C141.93 114.716 141.354 115.234 140.68 115.2L127.447 114.529C126.818 114.497 126.314 113.992 126.281 113.36C125.72 102.724 126.119 92.7111 127.477 83.3222C129.586 68.7488 132.734 62.7673 134.634 57.1615C134.651 57.1076 137.367 55.0419 140.188 53.2578Z" fill="#275382"/>
<path d="M139.112 29.9097C139.378 29.8115 139.642 29.7282 139.899 29.6577L139.848 28.7311C139.841 28.5962 139.942 28.4804 140.077 28.471L145.849 28.0675C145.984 28.0582 146.102 28.1607 146.111 28.2968L146.148 28.8201C149.296 28.4338 151.134 28.3456 151.662 28.5554C156.555 30.5021 157.364 38.954 157.338 41.5251C157.331 42.2146 156.234 42.8335 154.047 43.3818C154.285 45.7188 154.425 47.0392 154.506 47.725C154.506 47.725 154.505 47.8465 154.532 48.0261C154.602 48.554 137.978 53.7212 137.978 53.7212C137.966 53.7102 137.954 53.7112 137.954 53.7112C137.954 53.7112 137.718 53.6712 137.426 53.5268C137.281 53.4667 137.134 53.3825 136.984 53.2621C135.873 52.3886 135.693 50.2079 135.67 49.676C135.655 49.5074 135.644 49.3749 135.644 49.3749C135.598 48.5814 135.486 46.9748 135.266 43.9777C134.477 44.319 133.618 44.666 132.688 45.0187L132.722 32.6889C132.724 31.8073 133.245 31.0103 134.05 30.6573C135.841 29.8715 137.528 29.6223 139.112 29.9097Z" fill="#FF9900"/>
<path d="M138.271 118.453H136.047L129.047 118.236L129.405 114.615L138.33 115.051L138.271 118.453ZM156.792 114.033L165.496 112.771L166.211 118.048L157.943 118.998L156.792 114.033ZM145.67 23.5276V28.0946L140.905 28.4212L140.971 27.4255C140.29 27.5997 140.33 27.5793 140.264 27.5937C139.473 27.708 138.815 27.6144 138.695 27.5772C138.258 27.4945 137.832 27.0802 137.481 26.415C137.006 25.5273 136.641 24.1828 136.535 22.6066C136.509 22.3821 136.52 22.1614 136.531 21.9408L136.712 19.7539C136.751 19.2651 136.913 18.7891 137.204 18.3759C137.322 18.1911 137.437 18.0429 137.573 17.9217C139.045 16.3998 141.344 16.887 141.754 16.9915C141.802 17.0088 141.851 17.0139 141.898 17.0312C142.338 17.2005 142.763 17.2819 143.19 17.3389C143.385 17.3594 143.526 17.5467 143.506 17.7417L143.164 20.8607C143.282 20.7991 145.138 20.0568 145.655 20.4313C146.082 20.7448 146.263 22.7028 145.67 23.5276ZM135.743 51.1099L135.869 50.9986C135.926 50.9986 135.959 51.0015 135.969 51.0074L146.17 46.3843L146.38 44.5209C150.896 44.0301 154.02 43.4509 155.751 42.7833C155.781 47.5754 155.429 50.332 154.695 51.0533C153.03 52.6885 144.364 56.7296 135.688 57.8205C133.749 58.6836 130.541 59.3122 126.065 59.7062C124.788 58.8861 124.102 57.4536 124.007 55.4088L127.116 54.3353C126.99 54.2919 126.925 54.2596 126.925 54.2596C126.253 52.7168 134.773 51.3515 135.86 51.0571L135.743 51.1099ZM133.198 44.7214C129.009 46.6578 122.264 48.1302 120.461 46.0207C118.101 43.2584 117.79 35.7372 119.529 23.457C115.733 22.6127 113.104 21.6949 111.641 20.7037C111.245 20.4354 111.013 19.9842 111.024 19.5058C111.042 18.729 111.686 18.114 112.462 18.1322C116.18 18.2193 118.535 18.2121 119.529 18.1107C119.554 18.1082 119.579 18.1058 119.604 18.1036C122.619 17.8377 125.278 20.0676 125.544 23.0842L126.684 36.0235L132.72 33.1081L132.714 44.9066C132.877 44.8447 133.038 44.783 133.198 44.7214Z" fill="#DB9E75"/>
<path opacity="0.176986" d="M139.021 29.8864C137.916 30.3073 136.79 30.9913 136.036 32.1026C135.82 32.4248 135.549 32.9097 135.364 33.5932C135.338 33.6926 135.311 33.7799 135.285 33.8793C135.222 34.0911 135.087 34.5398 134.978 35.0226C134.862 35.5666 134.812 36.5903 134.832 38.0083L134.835 38.0445L134.863 38.6366C135.025 40.7807 135.155 42.5385 135.261 43.9744C134.478 44.3139 133.624 44.659 132.699 45.0097L132.725 32.6843C132.727 31.8048 133.245 31.0091 134.046 30.6542C135.802 29.8762 137.461 29.6203 139.021 29.8864V29.8864Z" fill="#444444"/>
<path d="M140.973 27.4547L142.861 26.9819L140.905 28.4637L140.973 27.4547Z" fill="#482D1F"/>
<path d="M144.628 24.037L144.64 24.0359C144.806 23.9792 145.295 23.8078 145.62 23.2979C145.946 22.7879 146.059 22.07 145.714 21.4649C145.38 20.8733 144.678 20.4903 144.071 20.6243C143.729 20.6997 143.481 20.9334 143.454 20.9553C143.08 21.3365 142.96 21.7692 142.96 21.7692L142.898 22.0664C142.831 21.9655 142.769 21.8657 142.713 21.768C141.941 20.7592 141.17 19.7382 140.399 18.7172C139.895 18.8004 139.098 18.8526 138.213 18.5618C137.903 18.4549 137.639 18.2541 137.406 18.1183C137.476 18.0391 137.545 17.9721 137.603 17.8916C138.683 16.6817 140.671 16.7174 141.566 16.9105C141.675 16.9343 142.061 17.0243 142.62 17.1202C142.924 17.1768 143.168 17.2025 143.314 17.2302C145.129 17.4951 145.874 17.3508 146.741 17.9365C146.903 18.0402 147.271 18.3015 147.569 18.7657C148.408 20.0783 148.011 21.6197 147.901 22.0781C147.534 23.4495 146.674 24.1412 146.392 24.4703C145.827 25.1406 145.093 24.4703 145.093 24.4703C145.093 24.4703 144.904 24.3036 144.628 24.037Z" fill="#482D1F"/>
<path d="M128.796 55.8933C128.895 55.8688 128.995 55.9294 129.019 56.0288C129.044 56.1281 128.984 56.2286 128.885 56.2531C128.264 56.4073 127.777 56.5117 126.691 56.7323C125.61 56.9518 125.127 57.0554 124.513 57.2079C124.414 57.2325 124.314 57.1718 124.29 57.0725C124.265 56.9731 124.326 56.8727 124.424 56.8481C125.046 56.6939 125.532 56.5896 126.618 56.369C127.699 56.1494 128.182 56.0458 128.796 55.8933ZM130.215 57.7362C130.316 57.7178 130.412 57.7845 130.43 57.8852C130.448 57.9859 130.382 58.0824 130.282 58.1008C129.595 58.2266 129.065 58.3362 127.887 58.5896C126.705 58.8437 126.172 58.9538 125.481 59.0806C125.381 59.0989 125.285 59.0322 125.266 58.9315C125.248 58.8308 125.314 58.7343 125.415 58.7159C126.101 58.5901 126.631 58.4805 127.81 58.2271C128.991 57.973 129.524 57.8629 130.215 57.7362Z" fill="#482D1F"/>
<path d="M137.269 22.041C137.269 22.2534 137.28 22.6175 137.165 22.7721C136.987 23.003 136.62 22.3888 136.732 21.9713C136.798 21.8081 136.883 21.7482 136.982 21.7532C137.132 21.7546 137.258 21.8893 137.269 22.041ZM139.914 22.1808C139.927 22.3952 139.937 22.7594 139.811 22.9119C139.632 23.1427 139.266 22.5286 139.377 22.111C139.443 21.9478 139.529 21.888 139.628 21.8929C139.778 21.8944 139.904 22.029 139.914 22.1808Z" fill="#482D1F"/>
<path d="M138.354 22.2889L138.128 23.4981C138.128 23.5022 138.143 23.5236 138.148 23.5246C138.215 23.5363 138.283 23.5439 138.391 23.5523C138.412 23.554 138.433 23.5556 138.465 23.5579C138.505 23.5608 138.526 23.5624 138.547 23.5639C138.618 23.5692 138.677 23.5739 138.74 23.5795C138.808 23.5854 138.858 23.6453 138.852 23.7133C138.846 23.7813 138.786 23.8316 138.719 23.8256C138.657 23.8202 138.599 23.8156 138.529 23.8104C138.508 23.8088 138.487 23.8073 138.447 23.8043C138.415 23.802 138.393 23.8004 138.372 23.7987C138.257 23.7897 138.182 23.7813 138.106 23.768C137.966 23.7434 137.862 23.5938 137.886 23.4538L138.112 22.2434C138.125 22.1763 138.189 22.1321 138.256 22.1447C138.323 22.1573 138.367 22.2218 138.354 22.2889Z" fill="#482D1F"/>
<path d="M142.127 22.206C142.137 22.3468 142.13 22.4911 142.105 22.6364C141.937 23.5869 141.031 24.2213 140.081 24.0538C139.282 23.9129 138.706 23.2497 138.643 22.4769L138.24 22.4481C138.07 23.3955 137.166 24.0269 136.218 23.8598C135.267 23.6923 134.633 22.786 134.8 21.8353C134.968 20.8848 135.874 20.2505 136.824 20.4179C137.652 20.5638 138.24 21.2703 138.267 22.0785L138.652 22.106C138.655 22.0805 138.659 22.0549 138.664 22.0293C138.832 21.0788 139.738 20.4444 140.688 20.6119C141.364 20.7311 141.88 21.2241 142.061 21.8411L142.886 21.7227C142.987 21.7082 143.081 21.7786 143.095 21.88C143.109 21.9813 143.039 22.0752 142.938 22.0896L142.127 22.206ZM137.898 22.2003C137.929 21.5194 137.45 20.9046 136.76 20.783C136.01 20.6508 135.296 21.1511 135.164 21.8999C135.032 22.6485 135.532 23.3626 136.281 23.4947C137.031 23.6269 137.746 23.1266 137.878 22.3778C137.884 22.3432 137.889 22.3086 137.892 22.2742C137.891 22.2622 137.89 22.2499 137.891 22.2373C137.892 22.2246 137.894 22.2122 137.898 22.2003ZM141.741 22.5718C141.873 21.8232 141.373 21.1091 140.624 20.977C139.874 20.8448 139.159 21.3451 139.027 22.0939C138.895 22.8425 139.395 23.5566 140.145 23.6887C140.895 23.8209 141.609 23.3206 141.741 22.5718Z" fill="#482D1F"/>
<path d="M138.827 24.5569C138.919 24.5356 139.142 24.475 139.175 24.356C139.179 24.3317 139.198 24.2975 139.176 24.2811C139.126 24.2099 138.97 24.2448 138.741 24.267C138.336 24.2955 138.017 24.2642 138.017 24.2642C138.017 24.2642 138.104 24.4794 138.168 24.5407C138.29 24.6995 138.695 24.5962 138.827 24.5569Z" fill="#482D1F"/>
<path d="M146.642 44.5049C146.616 43.417 146.596 42.4653 146.582 41.6499C146.568 40.8343 146.547 39.4948 146.521 37.6315C146.52 37.5291 146.436 37.4473 146.334 37.4487C146.232 37.4502 146.151 37.5343 146.152 37.6367C146.178 39.5004 146.198 40.8403 146.213 41.6564C146.227 42.4727 146.247 43.4251 146.273 44.5138C146.276 44.6161 146.36 44.6971 146.462 44.6947C146.564 44.6921 146.645 44.6072 146.642 44.5049Z" fill="#482D1F"/>
</g>
<g clip-path="url(#clip1_4084_6474)">
<path d="M67.3862 128.971L67.3875 129.044C67.3795 129.326 67.1368 129.551 66.8384 129.556L46.1482 129.524C45.8495 129.517 45.6119 129.288 45.607 129.006L45.6057 128.933C45.6137 128.651 45.8564 128.426 46.1548 128.421L66.832 128.454C67.1434 128.448 67.3811 128.677 67.3862 128.971ZM12.3333 129.434L12.3031 129.44L0.199507 120.022C-0.0219499 119.85 -0.0711625 119.52 0.113385 119.311L0.150294 119.25C0.261023 119.115 0.433267 119.042 0.605511 119.054C0.703936 119.054 0.790058 119.091 0.87618 119.152L12.9234 128.424L19.5162 128.439C19.7991 128.434 20.0246 128.663 20.0419 128.944L20.0432 129.018C20.0358 129.3 19.806 129.524 19.523 129.529L12.3119 129.507C12.319 129.483 12.3262 129.459 12.3333 129.434Z" fill="#323232"/>
<path d="M67.2098 128.636C67.1107 128.542 66.9727 128.485 66.8161 128.488L46.1389 128.455C46.106 128.456 46.0738 128.459 46.0426 128.465L46.8726 120.845L56.3223 120.818C57.4591 121.558 58.1986 122.092 58.5407 122.421C59.0538 122.915 59.6033 123.371 60.2008 123.765C61.6447 124.707 62.3951 124.694 64.5911 125.722C65.1865 125.993 65.7579 126.302 66.3177 126.648C66.8775 126.993 67.0689 127.382 67.2268 127.967C67.2531 128.065 67.2549 128.163 67.2687 128.248C67.272 128.441 67.2486 128.557 67.2098 128.636ZM0.859375 119.185L5.16548 113.323L12.5474 118.897L12.7836 119.656C13.6448 122.661 14.1124 124.246 14.1862 124.409C14.275 124.6 14.367 124.777 14.4638 124.949C15.1327 125.22 15.8923 125.485 17.0528 126.063C17.6434 126.344 18.2093 126.663 18.7629 127.018C19.3166 127.373 19.5011 127.765 19.6488 128.353C19.6612 128.403 19.6673 128.452 19.6719 128.5C19.6183 128.481 19.5606 128.472 19.5003 128.473L12.9075 128.458L0.860248 119.186C0.859957 119.186 0.859666 119.186 0.859375 119.185Z" fill="#323232"/>
<path d="M37.1266 59.9466C37.1633 59.9516 37.2001 59.9575 37.237 59.9644C37.593 60.0314 37.9255 60.1894 38.2018 60.4228C48.8508 69.4201 55.1491 76.8618 57.0966 82.7481C58.201 86.0862 59.1759 94.675 60.0213 108.515C60.1781 111.081 58.2159 113.287 55.6386 113.443C55.5843 113.447 55.53 113.449 55.4756 113.45L47.7212 113.65C45.1796 113.716 43.0514 111.747 42.9304 109.218L41.8966 87.6135C40.1969 85.8244 38.7159 84.2485 37.4535 82.8856C37.1506 84.5298 36.6832 86.2656 35.9278 88.588C34.6691 92.4579 29.5409 100.106 20.5432 111.534L20.1974 111.992C18.7319 113.936 16.0107 114.43 13.9503 113.126L8.16392 109.464C5.98483 108.085 5.3412 105.209 6.72631 103.039C6.78391 102.949 6.84461 102.861 6.90831 102.775L19.7948 85.365C20.102 78.463 20.7101 72.4247 21.6191 67.2502C22.9827 59.4885 33.19 59.6561 37.0532 59.7839C37.0781 59.837 37.1025 59.8913 37.1266 59.9466Z" fill="#275382"/>
<path opacity="0.176986" d="M37.1211 59.9448C37.1605 59.95 37.1999 59.9562 37.2394 59.9637C37.5955 60.0307 37.9279 60.1887 38.2042 60.4221C48.8533 69.4193 55.1516 76.8611 57.099 82.7474C58.2034 86.0854 59.1784 94.6743 60.0238 108.514C60.1805 111.08 58.2183 113.287 55.641 113.443C55.5868 113.446 55.5324 113.448 55.4781 113.45L47.7236 113.649C45.182 113.715 43.0538 111.746 42.9328 109.218L41.8991 87.6127C40.2004 85.8248 38.7201 84.2497 37.4583 82.8874C38.0161 79.8508 38.0138 77.1222 38.2303 71.581C38.4481 66.0072 38.0783 62.1285 37.1211 59.9448Z" fill="#444444"/>
<path d="M44.4531 31.1973L121.283 25.8482L124.742 75.0932C124.837 76.443 123.815 77.6137 122.459 77.7081L50.538 82.7153C49.1824 82.8097 48.0066 81.792 47.9118 80.4423L44.4531 31.1973Z" fill="#F2F6FB"/>
<path d="M48.5697 36.332L50.8726 36.1717C51.0081 36.1623 51.1257 36.264 51.1352 36.399L51.1987 37.3025C51.2081 37.4375 51.1059 37.5546 50.9704 37.564L48.6675 37.7243C48.5319 37.7338 48.4143 37.632 48.4048 37.497L48.3414 36.5935C48.3319 36.4585 48.4341 36.3415 48.5697 36.332ZM107.938 32.1987L117.924 31.5035C118.06 31.494 118.177 31.5958 118.187 31.7308L118.25 32.6343C118.26 32.7692 118.158 32.8863 118.022 32.8957L108.036 33.591C107.901 33.6004 107.783 33.4987 107.774 33.3637L107.71 32.4602C107.701 32.3252 107.803 32.2081 107.938 32.1987ZM89.0801 33.5116L99.066 32.8164C99.2016 32.807 99.3192 32.9087 99.3286 33.0437L99.3921 33.9472C99.4016 34.0822 99.2994 34.1993 99.1638 34.2087L89.1779 34.9039C89.0423 34.9134 88.9247 34.8116 88.9153 34.6766L88.8518 33.7731C88.8423 33.6381 88.9445 33.5211 89.0801 33.5116ZM100.954 32.685L106.051 32.3301C106.186 32.3207 106.304 32.4225 106.313 32.5574L106.377 33.4609C106.386 33.5959 106.284 33.713 106.148 33.7224L101.052 34.0773C100.916 34.0867 100.798 33.9849 100.789 33.85L100.726 32.9464C100.716 32.8115 100.818 32.6944 100.954 32.685Z" fill="#D8DEED"/>
<path d="M71.4649 40.3336L54.7627 41.4922C54.3156 41.5232 53.9786 41.9095 54.01 42.355L56.3419 75.4361C56.3733 75.8815 56.7613 76.2175 57.2084 76.1865L73.9106 75.0279C74.3577 74.9969 74.6948 74.6106 74.6634 74.1652L72.3314 41.0841C72.3 40.6386 71.9121 40.3026 71.4649 40.3336Z" fill="#D8DEED"/>
<path d="M65.5915 74.4479C66.3051 74.3984 66.8438 73.7924 66.7946 73.0944C66.7454 72.3964 66.1269 71.8706 65.4133 71.9201C64.6996 71.9696 64.161 72.5756 64.2102 73.2736C64.2594 73.9717 64.8778 74.4974 65.5915 74.4479Z" fill="#F2F6FB"/>
<path d="M64.3287 42.9091L62.4359 43.0404C62.2448 43.0537 62.1007 43.2189 62.1141 43.4094C62.1276 43.5998 62.2934 43.7435 62.4845 43.7302L64.3773 43.5989C64.5684 43.5856 64.7125 43.4205 64.6991 43.23C64.6856 43.0395 64.5198 42.8958 64.3287 42.9091Z" fill="#F2F6FB"/>
<path d="M71.1401 44.2811L55.6367 45.3564L57.5156 72.0094L73.019 70.9341L71.1401 44.2811Z" fill="#F2F6FB"/>
<path d="M64.8699 60.6608L61.2459 60.9121C61.1567 60.9183 61.1196 60.8602 61.1631 60.7825L63.3743 56.8301C63.4178 56.7523 63.4981 56.7452 63.5545 56.8153L65.5231 59.2856L66.1936 58.0795C66.2369 58.0016 66.3186 57.9925 66.378 58.0612L68.3036 60.2915C68.3621 60.3593 68.338 60.4199 68.2483 60.427L66.6818 60.5503L64.8699 60.6608ZM66.2123 57.2017C65.8935 57.2238 65.6177 56.9941 65.5962 56.6886C65.5746 56.3831 65.8156 56.1175 66.1343 56.0954C66.453 56.0733 66.7288 56.303 66.7504 56.6085C66.7719 56.914 66.531 57.1796 66.2123 57.2017Z" fill="#D8DEED"/>
<path d="M80.3548 49.1597L111.993 46.957C112.128 46.9475 112.246 47.0493 112.255 47.1843L112.417 49.4801C112.426 49.6151 112.324 49.7321 112.188 49.7416L80.5504 51.9443C80.4148 51.9537 80.2973 51.8519 80.2878 51.717L80.1265 49.4211C80.1171 49.2862 80.2193 49.1691 80.3548 49.1597ZM80.6726 53.6846L100.088 52.3329C100.223 52.3235 100.341 52.4252 100.35 52.5602L100.512 54.856C100.521 54.991 100.419 55.1081 100.283 55.1175L80.8682 56.4692C80.7326 56.4787 80.6151 56.3769 80.6056 56.2419L80.4443 53.9461C80.4349 53.8111 80.5371 53.6941 80.6726 53.6846ZM80.9904 58.2096L107.739 56.3473C107.875 56.3378 107.992 56.4396 108.002 56.5746L108.163 58.8704C108.173 59.0054 108.07 59.1224 107.935 59.1319L81.186 60.9942C81.0504 61.0036 80.9329 60.9018 80.9234 60.7669L80.7621 58.4711C80.7527 58.3361 80.8549 58.219 80.9904 58.2096Z" fill="#E1E5F0"/>
<path d="M106.085 42.8211L80.0345 44.6348C79.899 44.6442 79.7967 44.7613 79.8062 44.8962L79.9675 47.1921C79.9769 47.327 80.0945 47.4288 80.2301 47.4194L106.28 45.6057C106.416 45.5962 106.518 45.4792 106.509 45.3442L106.348 43.0484C106.338 42.9134 106.22 42.8117 106.085 42.8211Z" fill="#D8DEED"/>
<path d="M83.5812 65.3744L96.3959 64.4822C97.1725 64.4281 97.4834 64.492 97.7946 64.6308C98.1058 64.7697 98.3577 64.9877 98.5392 65.2753C98.7206 65.5628 98.8274 65.8604 98.8817 66.6337L98.9479 67.5764C99.0022 68.3496 98.9381 68.6592 98.7986 68.9691C98.6591 69.2789 98.4401 69.5297 98.1513 69.7104C97.8626 69.891 97.5636 69.9973 96.787 70.0514L83.9723 70.9436C83.1957 70.9976 82.8848 70.9338 82.5736 70.7949C82.2623 70.6561 82.0104 70.438 81.829 70.1505C81.6476 69.863 81.5408 69.5653 81.4865 68.7921L81.4203 67.8493C81.366 67.0761 81.4301 66.7666 81.5696 66.4567C81.709 66.1468 81.928 65.896 82.2168 65.7154C82.5056 65.5347 82.8045 65.4284 83.5812 65.3744Z" fill="#1C4A7B"/>
<path d="M44.2224 27.8981C44.1276 26.5483 45.1498 25.3776 46.5066 25.2831L118.425 20.276C119.781 20.1816 120.958 21.1998 121.053 22.5491L121.301 26.0927L44.4713 31.4417L44.2224 27.8981Z" fill="#E1E5F0"/>
<path d="M48.3478 29.5755C49.0595 29.526 49.5962 28.9114 49.5464 28.2027C49.4966 27.4941 48.8793 26.9598 48.1676 27.0094C47.4559 27.059 46.9193 27.6736 46.969 28.3822C47.0188 29.0908 47.6361 29.6251 48.3478 29.5755Z" fill="#FF5645"/>
<path d="M52.6447 29.2762C53.3564 29.2267 53.893 28.612 53.8433 27.9034C53.7935 27.1948 53.1762 26.6605 52.4645 26.7101C51.7527 26.7596 51.2161 27.3742 51.2659 28.0829C51.3157 28.7915 51.933 29.3258 52.6447 29.2762Z" fill="#FFCB3D"/>
<path d="M57.0627 28.9686C57.7744 28.919 58.311 28.3044 58.2612 27.5958C58.2115 26.8872 57.5942 26.3529 56.8824 26.4025C56.1707 26.452 55.6341 27.0666 55.6839 27.7752C55.7336 28.4839 56.3509 29.0181 57.0627 28.9686Z" fill="#3ABF7C"/>
<path d="M21.3972 50.1233L20.0364 50.3737C19.9855 50.3831 19.9338 50.3871 19.882 50.3857C19.4745 50.3746 19.1532 50.0366 19.1643 49.6308C19.2732 45.6832 19.6729 43.1075 20.3634 41.9039C20.5655 41.5516 20.826 41.2676 21.1272 41.0477C22.3586 39.8841 24.454 39.2282 26.953 38.8047L27.6436 38.6835C28.7118 38.5031 29.7407 38.5166 30.6961 38.6877C31.8881 38.7331 33.3555 39.0085 34.69 39.8844C34.9016 40.0214 35.3534 40.3152 35.8515 40.7999C35.8515 40.7999 36.8292 41.7353 38.1052 44.9194C38.2531 45.2969 38.4681 45.924 38.75 46.8007C38.8536 47.1228 38.6753 47.4676 38.3517 47.5707C38.3296 47.5778 38.3071 47.5836 38.2844 47.5881L36.7372 47.8951L37.1448 52.8993C37.1562 53.0342 37.1655 53.1569 37.189 53.2896C37.2879 53.919 37.2914 54.7145 36.8836 55.4453C36.299 56.5181 35.3709 58.0493 30.5159 58.8519C26.0001 59.5949 24.6867 58.4573 23.7974 57.6681C23.161 57.1081 22.8939 56.2346 22.7749 55.6335C22.7514 55.5008 22.7179 55.3823 22.6823 55.2518L21.3972 50.1233Z" fill="#FF9900"/>
<path opacity="0.176986" d="M30.6743 38.6856C33.0699 39.1085 35.0049 40.5217 35.9377 42.3533C36.2426 42.9466 36.3986 43.6157 36.4413 44.2799L36.7358 47.895L38.2779 47.596C38.3007 47.5916 38.3233 47.5859 38.3455 47.5789C38.6695 47.4771 38.8492 47.133 38.7469 46.8104C38.467 45.9275 38.253 45.2972 38.1049 44.9193C36.8289 41.7351 35.8512 40.7998 35.8512 40.7998C35.3531 40.315 34.9013 40.0212 34.6896 39.8842C33.3341 38.9945 31.8691 38.7244 30.6743 38.6856V38.6856Z" fill="#323232"/>
<path d="M47.2726 113.623C47.4098 113.631 47.5485 113.634 47.6885 113.63L55.4429 113.431C55.4973 113.429 55.5516 113.427 55.6059 113.424C56.0654 113.396 56.5054 113.303 56.9173 113.154L56.2832 120.811H46.8234L47.2726 113.623ZM15.4494 113.731L12.5499 118.897L5.16797 113.323L7.749 109.175C7.8706 109.27 7.99804 109.36 8.13123 109.445L13.9176 113.107C14.4002 113.412 14.919 113.619 15.4494 113.731ZM42.7987 56.8364L44.5866 57.034C45.3484 56.6345 52.287 53.0502 52.7394 54.7886C52.7394 54.7886 52.7094 54.8519 52.639 54.9605L55.8698 53.8593C57.6513 56.3423 56.1432 60.2235 56.1192 60.237C51.9966 62.0379 48.9016 62.9947 46.8342 63.1075C46.5955 63.1205 46.3821 63.1054 46.1941 63.0621C46.1909 63.0846 46.1877 63.1073 46.1845 63.1301C39.6621 63.9091 32.8242 63.6207 25.6709 62.265C23.9499 61.9388 22.0459 57.9505 19.9591 50.3001C19.9793 50.2981 19.9994 50.2953 20.0194 50.2916L28.049 48.8139C28.1208 48.8007 28.1882 48.7775 28.2501 48.7461L30.2284 55.4474L36.3084 56.1192C36.5077 55.8522 36.6525 55.5947 36.7808 55.3593C37.1885 54.6285 37.1851 53.833 37.0861 53.2036C37.0626 53.0709 37.0534 52.9481 37.042 52.8133L36.7255 47.8499L38.2019 47.6049C38.2347 47.5992 38.448 47.5437 38.448 47.5437L40.0498 50.7471C41.427 49.988 45.4608 45.2775 45.4608 45.2775C45.4608 45.2775 45.652 47.8426 46.0784 53.4768L42.7987 56.8364ZM29.6773 37.3019L29.8182 38.4664C32.3148 38.568 33.4496 39.5343 33.832 39.9557C33.832 39.9557 31.1978 40.4346 25.9295 41.3924C24.5087 40.2582 22.3941 40.0011 21.0804 40.9876C21.8098 40.2841 23.0697 39.6787 24.86 39.1713C25.3284 39.0386 25.7743 38.9271 26.1987 38.8346L25.7399 34.491C25.7132 34.476 25.6865 34.4601 25.6598 34.4432C25.18 34.1273 24.8179 33.5391 24.8868 32.8486C24.9447 32.2118 25.4237 31.3355 26.0068 31.2307C26.3341 31.1687 27.2476 31.4452 27.1831 31.1581C27.14 30.9667 26.8881 29.9517 26.4273 28.1132C26.3882 27.9208 26.5013 27.7257 26.6915 27.675C27.1225 27.5727 27.5488 27.5477 27.9718 27.3208C28.0193 27.3081 28.0636 27.2836 28.1112 27.2709C28.5025 27.1158 30.6808 26.2176 32.3443 27.5239C32.4863 27.6255 32.6259 27.7658 32.7688 27.9179C33.106 28.2718 33.3285 28.7197 33.4321 29.1993L33.907 31.3426C33.9405 31.5619 33.986 31.7781 33.9957 32.0037C34.1766 34.7581 33.4992 36.8791 32.52 37.2164C32.4044 37.26 31.7658 37.443 30.963 37.4416C30.8853 37.4369 30.9543 37.4566 29.8478 37.3206C29.7894 37.3144 29.7325 37.3081 29.6773 37.3019Z" fill="#F2A98A"/>
<path opacity="0.2" d="M42.6974 56.8485L46.0709 53.4396C45.6445 47.7939 45.4609 45.2773 45.4609 45.2773C45.4609 45.2773 41.4247 49.9693 40.0476 50.7283L38.4481 47.5435C38.4481 47.5435 38.2636 47.6047 37.833 47.666L36.7257 47.8497L37.04 52.8873C37.0514 53.0221 37.0606 53.1449 37.0841 53.2776C37.1831 53.907 37.1866 54.7024 36.7788 55.4333C36.6581 55.6548 36.5227 55.8959 36.3411 56.1461L42.6974 56.8485Z" fill="#8C2A00"/>
<path d="M52.261 56.974C52.8696 56.7999 53.3398 56.6491 54.3862 56.3008C55.4375 55.9508 55.9113 55.7989 56.5265 55.6229C56.6245 55.5949 56.7267 55.6512 56.7549 55.7488C56.783 55.8463 56.7264 55.9481 56.6284 55.9761C56.0199 56.1502 55.5496 56.301 54.5032 56.6493C53.4519 56.9992 52.9782 57.1512 52.3629 57.3272C52.265 57.3552 52.1627 57.2988 52.1346 57.2013C52.1064 57.1038 52.163 57.002 52.261 56.974ZM51.9392 59.496C52.6017 59.2614 53.1181 59.0915 54.2693 58.7228C55.4171 58.3552 55.931 58.1861 56.5888 57.9532C56.6849 57.9192 56.7904 57.9691 56.8246 58.0647C56.8587 58.1603 56.8086 58.2654 56.7125 58.2994C56.05 58.534 55.5336 58.7039 54.3824 59.0726C53.2346 59.4402 52.7207 59.6093 52.0628 59.8422C51.9668 59.8762 51.8613 59.8263 51.8271 59.7307C51.793 59.6351 51.8431 59.53 51.9392 59.496Z" fill="#482D1F"/>
<path d="M22.2007 31.3186C22.1908 30.8454 22.2674 30.3289 22.5116 29.8204C22.7448 29.3143 23.0828 29.0086 23.2269 28.8814C24.021 28.1876 24.7858 28.2372 26.5826 27.7198C26.9597 27.6065 27.5151 27.4457 28.1615 27.1971C28.2122 27.1963 28.2565 27.1718 28.3041 27.1591C28.6954 27.004 30.8415 26.3173 32.4177 27.5834C32.4241 27.6071 32.662 27.7339 32.6597 27.7725C32.6597 27.7725 31.0202 31.2914 27.5938 32.0089C27.5021 31.9105 27.2591 31.6775 26.8947 31.5298C26.8527 31.5156 26.5553 31.4047 26.2281 31.4667C25.6449 31.5715 25.1717 32.1797 25.1139 32.8165C25.0386 33.4833 25.3975 34.0597 25.8655 34.3787C26.3334 34.6977 26.8374 34.6774 27.0015 34.6717L27.194 34.6164C27.3602 34.9333 27.476 35.2748 27.3417 35.5353C27.0824 36.0385 26.5996 36.329 25.8934 36.4068C25.2403 37.2299 24.1722 37.8043 22.933 37.8906C20.7978 38.0392 18.9632 36.6826 18.8352 34.8604C18.7126 33.1155 20.1995 31.5765 22.2007 31.3186ZM34.1322 30.731C33.9159 30.8267 33.5452 30.9636 33.1806 30.9341C32.6131 30.9079 33.0715 30.4813 33.5651 30.375C33.806 30.3234 34.0161 30.3942 34.1485 30.4603C34.254 30.5209 34.2446 30.6756 34.1322 30.731ZM31.8267 31.346C31.5986 31.4449 31.2278 31.5819 30.8514 31.5555C30.2871 31.5412 30.7422 31.1027 31.2358 30.9964C31.4886 30.9416 31.6987 31.0124 31.8311 31.0785C31.9485 31.136 31.9392 31.2907 31.8267 31.346Z" fill="#482D1F"/>
<path d="M33.4836 31.8795C33.4692 31.7312 33.5593 31.593 33.702 31.5549C33.797 31.5296 33.893 31.5547 33.9732 31.7109C34.1583 32.0673 33.9363 32.7098 33.7245 32.5381C33.5675 32.4278 33.514 32.087 33.4836 31.8795ZM31.3492 32.3728C31.3347 32.2245 31.4249 32.0863 31.5675 32.0483C31.6626 32.0229 31.7585 32.0481 31.8387 32.2042C32.0238 32.5606 31.8019 33.2032 31.5901 33.0314C31.433 32.9211 31.3677 32.5835 31.3492 32.3728Z" fill="#482D1F"/>
<path d="M32.5871 34.6047C32.4975 34.6032 32.2764 34.5862 32.2057 34.4655C32.1993 34.4418 32.1779 34.4095 32.1834 34.3827C32.2119 34.299 32.3759 34.2933 32.5962 34.2599C32.986 34.1939 33.2854 34.076 33.2854 34.076C33.2854 34.076 33.2541 34.338 33.2106 34.413C33.1427 34.634 32.7274 34.6053 32.5871 34.6047Z" fill="#482D1F"/>
<path d="M32.8925 32.1345L33.3726 33.3541L33.3768 33.3671C33.4116 33.4962 33.3551 33.6398 33.2315 33.6958C33.2084 33.7044 33.1954 33.7089 33.1823 33.7133C33.0588 33.755 32.9689 33.7803 32.6452 33.8667C32.5795 33.8842 32.5121 33.8454 32.4945 33.78C32.4769 33.7147 32.5158 33.6475 32.5815 33.63C32.8995 33.5452 32.9869 33.5206 33.1033 33.4813C33.1155 33.4772 33.1276 33.473 33.1397 33.4688C33.137 33.4695 33.1433 33.4531 33.1402 33.4352L32.6601 32.2155L32.6548 32.1985L32.4907 31.4941C32.4754 31.4282 32.5166 31.3624 32.5828 31.3471C32.649 31.3318 32.7151 31.3728 32.7304 31.4387L32.8925 32.1345Z" fill="#482D1F"/>
<path d="M28.477 48.7327C28.1779 47.5862 27.8585 46.3944 27.5189 45.1573C27.492 45.0594 27.3905 45.0018 27.2922 45.0285C27.1939 45.0553 27.136 45.1563 27.1628 45.2542C27.5021 46.4899 27.8211 47.6802 28.1198 48.8251C28.1454 48.9233 28.2462 48.9823 28.3448 48.9568C28.4435 48.9312 28.5027 48.8309 28.477 48.7327Z" fill="#482D1F"/>
</g>
<defs>
<clipPath id="clip0_4084_6474">
<rect width="125" height="117" fill="white" transform="translate(77 10.105)"/>
</clipPath>
<clipPath id="clip1_4084_6474">
<rect width="125" height="110" fill="white" transform="translate(0 20.105)"/>
</clipPath>
</defs>
</svg>
